<?xml version="1.0" encoding="utf-8"?>
<!-- Generator: Adobe Illustrator 24.2.3, SVG Export Plug-In . SVG Version: 6.00 Build 0)  -->
<svg version="1.1" xmlns="http://www.w3.org/2000/svg" xmlns:xlink="http://www.w3.org/1999/xlink" x="0px" y="0px"
	 viewBox="0 0 566.2 100.6" style="enable-background:new 0 0 566.2 100.6;" xml:space="preserve">
<style type="text/css">
	.st0{fill:#FFFFFF;}
</style>
<g id="Layer_1">
	<g>
		<g>
			<path class="st0" d="M270.9,10.3h9.7V13h-6.3v4.9h6v2.7h-6v5.5h6.6v2.7h-10V10.3z"/>
			<path class="st0" d="M283.4,17.3c0-0.5,0-0.9,0-1.3c0-0.4,0-0.7-0.1-0.9h3.3c0,0.4,0,0.7,0.1,1.1c0,0.4,0,0.7,0,1.1h0.1
				c0.1-0.3,0.3-0.5,0.5-0.8s0.4-0.5,0.7-0.8c0.3-0.2,0.6-0.4,1-0.6c0.4-0.1,0.8-0.2,1.3-0.2c0.6,0,1.1,0.1,1.5,0.2
				c0.4,0.2,0.7,0.3,1,0.6c0.3,0.2,0.5,0.5,0.6,0.7c0.1,0.3,0.3,0.5,0.4,0.6c0.2-0.2,0.3-0.5,0.6-0.7s0.5-0.5,0.8-0.7
				c0.3-0.2,0.6-0.4,1-0.5c0.4-0.1,0.8-0.2,1.3-0.2c0.7,0,1.4,0.1,1.9,0.4c0.5,0.3,0.9,0.6,1.2,1.1c0.3,0.5,0.5,1,0.6,1.7
				c0.1,0.7,0.2,1.4,0.2,2.3v8.4H298v-8.6c0-0.8-0.1-1.5-0.4-1.9c-0.3-0.4-0.7-0.6-1.3-0.6c-0.4,0-0.7,0.1-1,0.2
				c-0.3,0.2-0.5,0.4-0.7,0.6c-0.2,0.3-0.3,0.6-0.4,0.9c-0.1,0.4-0.1,0.7-0.1,1.1v8.3h-3.3v-8.6c0-0.8-0.1-1.5-0.4-1.9
				c-0.3-0.4-0.7-0.6-1.3-0.6c-0.4,0-0.7,0.1-1,0.2c-0.3,0.2-0.5,0.4-0.7,0.6c-0.2,0.3-0.3,0.6-0.4,0.9c-0.1,0.4-0.1,0.7-0.1,1.1
				v8.3h-3.3V17.3z"/>
			<path class="st0" d="M303.4,21.9c0-1.4,0.2-2.5,0.5-3.4c0.4-0.9,0.8-1.6,1.4-2.1c0.6-0.5,1.2-0.9,1.9-1.1s1.4-0.3,2.1-0.3
				c0.7,0,1.4,0.1,2.1,0.3c0.7,0.2,1.4,0.6,1.9,1.1c0.6,0.5,1,1.2,1.4,2.1c0.4,0.9,0.5,2,0.5,3.4c0,1.4-0.2,2.6-0.5,3.5
				c-0.4,0.9-0.8,1.6-1.4,2.2c-0.6,0.5-1.2,0.9-1.9,1.1c-0.7,0.2-1.4,0.3-2.1,0.3c-0.7,0-1.4-0.1-2.1-0.3s-1.4-0.6-1.9-1.1
				s-1.1-1.2-1.4-2.2C303.5,24.5,303.4,23.3,303.4,21.9z M306.8,21.9c0,0.6,0,1.1,0.1,1.7c0.1,0.6,0.2,1.1,0.4,1.5
				c0.2,0.5,0.5,0.8,0.8,1.1c0.3,0.3,0.8,0.4,1.3,0.4c0.5,0,1-0.1,1.3-0.4c0.3-0.3,0.6-0.6,0.8-1.1c0.2-0.5,0.3-1,0.4-1.5
				c0.1-0.6,0.1-1.1,0.1-1.7s0-1.1-0.1-1.7c-0.1-0.6-0.2-1.1-0.4-1.5c-0.2-0.4-0.5-0.8-0.8-1.1c-0.3-0.3-0.8-0.4-1.3-0.4
				c-0.5,0-1,0.1-1.3,0.4c-0.3,0.3-0.6,0.6-0.8,1.1c-0.2,0.4-0.3,0.9-0.4,1.5C306.8,20.8,306.8,21.4,306.8,21.9z"/>
			<path class="st0" d="M317.8,17.4c0-0.4,0-0.8,0-1.2s0-0.7-0.1-1h3c0,0.4,0,0.8,0.1,1.2c0,0.4,0,0.8,0,1.2h0.1
				c0.1-0.3,0.2-0.6,0.4-0.9c0.2-0.3,0.4-0.6,0.7-0.9c0.3-0.3,0.6-0.5,1-0.7s0.8-0.3,1.4-0.3c0.1,0,0.2,0,0.3,0s0.2,0,0.3,0.1V18
				c-0.3-0.1-0.6-0.1-0.9-0.1c-0.3,0-0.7,0.1-1,0.2c-0.3,0.1-0.6,0.3-0.9,0.6c-0.3,0.3-0.5,0.6-0.7,1c-0.2,0.4-0.3,1-0.3,1.6v7.5
				h-3.3V17.4z"/>
			<path class="st0" d="M332.5,25.4L332.5,25.4l2.7-10.3h3.2l-4.2,13.8l-0.8,2.5c-0.1,0.5-0.3,0.9-0.5,1.3s-0.5,0.7-0.8,1
				c-0.3,0.3-0.7,0.5-1.1,0.7c-0.4,0.2-0.9,0.3-1.5,0.3c-0.4,0-0.8,0-1.2-0.1c-0.4-0.1-0.7-0.2-0.9-0.2l0.2-2.5
				c0.2,0.1,0.4,0.1,0.6,0.2c0.2,0.1,0.4,0.1,0.7,0.1c0.5,0,0.9-0.1,1.1-0.5s0.5-0.8,0.7-1.5l0.2-1.2l-4.5-13.8h3.4L332.5,25.4z"/>
			<path class="st0" d="M358.7,28.4c-0.4,0.2-0.9,0.4-1.6,0.5c-0.7,0.1-1.5,0.2-2.4,0.2c-1.4,0-2.7-0.2-3.7-0.7
				c-1.1-0.5-1.9-1.2-2.7-2c-0.7-0.8-1.2-1.9-1.6-3c-0.4-1.2-0.5-2.4-0.5-3.8c0-1.3,0.2-2.6,0.5-3.8c0.4-1.2,0.9-2.2,1.6-3
				c0.7-0.8,1.6-1.5,2.6-2s2.3-0.7,3.6-0.7c1,0,1.8,0.1,2.5,0.3c0.7,0.2,1.2,0.3,1.6,0.5l-0.2,3c-0.4-0.2-0.8-0.4-1.4-0.6
				c-0.6-0.2-1.3-0.4-2.1-0.4c-0.7,0-1.4,0.1-2,0.4c-0.6,0.2-1.2,0.6-1.7,1.2c-0.5,0.5-0.9,1.2-1.1,2.1c-0.3,0.8-0.4,1.9-0.4,3.1
				c0,1.2,0.1,2.2,0.4,3.1c0.3,0.8,0.7,1.5,1.1,2.1c0.5,0.5,1,0.9,1.7,1.2c0.6,0.2,1.3,0.4,2,0.4c0.8,0,1.5-0.1,2.1-0.3
				c0.6-0.2,1-0.4,1.4-0.7L358.7,28.4z"/>
			<path class="st0" d="M370.8,28.1c-0.4,0.1-0.9,0.3-1.6,0.5s-1.5,0.3-2.5,0.3c-1.1,0-2-0.2-2.8-0.6c-0.8-0.4-1.4-0.9-2-1.5
				c-0.5-0.6-0.9-1.3-1.1-2.2c-0.2-0.8-0.4-1.7-0.4-2.6c0-1,0.1-2,0.4-2.8s0.6-1.6,1.1-2.3c0.5-0.7,1.1-1.2,1.8-1.5
				c0.7-0.4,1.5-0.6,2.3-0.6c0.7,0,1.4,0.1,2.1,0.4c0.7,0.2,1.2,0.6,1.7,1.2c0.5,0.6,0.9,1.3,1.2,2.2c0.3,0.9,0.4,2.1,0.4,3.5v0.6
				h-7.9c0,1.2,0.3,2.1,0.8,2.7c0.5,0.7,1.4,1,2.7,1c1,0,1.8-0.1,2.3-0.4c0.5-0.2,1-0.5,1.3-0.7L370.8,28.1z M368.3,20.8
				c0-2.4-0.8-3.6-2.3-3.6c-0.4,0-0.8,0.1-1.1,0.3c-0.3,0.2-0.6,0.5-0.8,0.8c-0.2,0.3-0.3,0.7-0.4,1.2c-0.1,0.4-0.1,0.9-0.1,1.3
				H368.3z"/>
			<path class="st0" d="M373.8,17.4c0-0.4,0-0.8,0-1.2s0-0.7-0.1-1h3.1c0,0.4,0,0.7,0.1,1c0,0.3,0,0.7,0,1h0.1
				c0.1-0.2,0.3-0.5,0.5-0.7c0.2-0.3,0.4-0.5,0.7-0.8c0.3-0.2,0.6-0.4,1-0.6c0.4-0.2,0.9-0.2,1.4-0.2c0.8,0,1.4,0.1,1.9,0.4
				s0.9,0.6,1.2,1.1c0.3,0.5,0.5,1,0.7,1.6c0.1,0.6,0.2,1.3,0.2,1.9v8.8h-3.3v-8.2c0-1.1-0.1-1.8-0.4-2.3c-0.3-0.5-0.8-0.7-1.4-0.7
				c-0.4,0-0.8,0.1-1.1,0.3c-0.3,0.2-0.5,0.4-0.7,0.7s-0.3,0.6-0.4,1c-0.1,0.4-0.1,0.8-0.1,1.2v8h-3.3V17.4z"/>
			<path class="st0" d="M388.5,12.3l3.3-1v3.8h2.7v2.4h-2.7v7.1c0,0.7,0.1,1.2,0.4,1.5c0.3,0.3,0.6,0.4,1.1,0.4c0.3,0,0.6,0,0.8-0.1
				c0.2-0.1,0.4-0.1,0.5-0.2v2.3c-0.2,0.1-0.6,0.2-0.9,0.3c-0.4,0.1-0.8,0.1-1.3,0.1c-1.2,0-2.2-0.3-2.8-0.9c-0.7-0.6-1-1.6-1-3.1
				v-7.5h-2.2v-2.4h2.2V12.3z"/>
			<path class="st0" d="M406.5,28.1c-0.4,0.1-0.9,0.3-1.6,0.5s-1.5,0.3-2.5,0.3c-1.1,0-2-0.2-2.8-0.6c-0.8-0.4-1.4-0.9-2-1.5
				c-0.5-0.6-0.9-1.3-1.1-2.2c-0.2-0.8-0.4-1.7-0.4-2.6c0-1,0.1-2,0.4-2.8s0.6-1.6,1.1-2.3c0.5-0.7,1.1-1.2,1.8-1.5
				c0.7-0.4,1.5-0.6,2.3-0.6c0.7,0,1.4,0.1,2.1,0.4c0.7,0.2,1.2,0.6,1.7,1.2c0.5,0.6,0.9,1.3,1.2,2.2c0.3,0.9,0.4,2.1,0.4,3.5v0.6
				h-7.9c0,1.2,0.3,2.1,0.8,2.7c0.5,0.7,1.4,1,2.7,1c1,0,1.8-0.1,2.3-0.4c0.5-0.2,1-0.5,1.3-0.7L406.5,28.1z M404,20.8
				c0-2.4-0.8-3.6-2.3-3.6c-0.4,0-0.8,0.1-1.1,0.3c-0.3,0.2-0.6,0.5-0.8,0.8c-0.2,0.3-0.3,0.7-0.4,1.2c-0.1,0.4-0.1,0.9-0.1,1.3H404
				z"/>
			<path class="st0" d="M409.6,17.4c0-0.4,0-0.8,0-1.2s0-0.7-0.1-1h3c0,0.4,0,0.8,0.1,1.2c0,0.4,0,0.8,0,1.2h0.1
				c0.1-0.3,0.2-0.6,0.4-0.9c0.2-0.3,0.4-0.6,0.7-0.9c0.3-0.3,0.6-0.5,1-0.7c0.4-0.2,0.8-0.3,1.4-0.3c0.1,0,0.2,0,0.3,0
				c0.1,0,0.2,0,0.3,0.1V18c-0.3-0.1-0.6-0.1-0.9-0.1c-0.3,0-0.7,0.1-1,0.2c-0.3,0.1-0.6,0.3-0.9,0.6c-0.3,0.3-0.5,0.6-0.7,1
				c-0.2,0.4-0.3,1-0.3,1.6v7.5h-3.3V17.4z"/>
			<path class="st0" d="M425.9,17.5h-2.3v-2.4h2.3v-2.8c0-0.5,0.1-1,0.2-1.4c0.1-0.5,0.3-0.8,0.6-1.2c0.3-0.3,0.7-0.6,1.2-0.8
				c0.5-0.2,1.1-0.3,1.9-0.3c0.4,0,0.9,0,1.3,0.1c0.4,0.1,0.8,0.1,1.1,0.2l-0.1,2.4c-0.2-0.1-0.4-0.1-0.6-0.1
				c-0.2,0-0.4-0.1-0.7-0.1c-0.5,0-0.9,0.2-1.1,0.5c-0.3,0.3-0.4,0.7-0.4,1.2v2.4h2.5v2.4h-2.5v11.2h-3.3V17.5z"/>
			<path class="st0" d="M432.9,21.9c0-1.4,0.2-2.5,0.5-3.4c0.4-0.9,0.8-1.6,1.4-2.1c0.6-0.5,1.2-0.9,1.9-1.1
				c0.7-0.2,1.4-0.3,2.1-0.3c0.7,0,1.4,0.1,2.1,0.3s1.4,0.6,1.9,1.1c0.6,0.5,1,1.2,1.4,2.1c0.4,0.9,0.5,2,0.5,3.4
				c0,1.4-0.2,2.6-0.5,3.5c-0.4,0.9-0.8,1.6-1.4,2.2c-0.6,0.5-1.2,0.9-1.9,1.1S439.6,29,439,29c-0.7,0-1.4-0.1-2.1-0.3
				c-0.7-0.2-1.4-0.6-1.9-1.1s-1.1-1.2-1.4-2.2C433.1,24.5,432.9,23.3,432.9,21.9z M436.3,21.9c0,0.6,0,1.1,0.1,1.7
				c0.1,0.6,0.2,1.1,0.4,1.5c0.2,0.5,0.5,0.8,0.8,1.1c0.3,0.3,0.8,0.4,1.3,0.4c0.5,0,1-0.1,1.3-0.4s0.6-0.6,0.8-1.1
				c0.2-0.5,0.3-1,0.4-1.5c0.1-0.6,0.1-1.1,0.1-1.7s0-1.1-0.1-1.7c-0.1-0.6-0.2-1.1-0.4-1.5c-0.2-0.4-0.5-0.8-0.8-1.1
				s-0.8-0.4-1.3-0.4c-0.5,0-1,0.1-1.3,0.4c-0.3,0.3-0.6,0.6-0.8,1.1c-0.2,0.4-0.3,0.9-0.4,1.5C436.4,20.8,436.3,21.4,436.3,21.9z"
				/>
			<path class="st0" d="M447.3,17.4c0-0.4,0-0.8,0-1.2s0-0.7-0.1-1h3c0,0.4,0,0.8,0.1,1.2c0,0.4,0,0.8,0,1.2h0.1
				c0.1-0.3,0.2-0.6,0.4-0.9c0.2-0.3,0.4-0.6,0.7-0.9c0.3-0.3,0.6-0.5,1-0.7c0.4-0.2,0.8-0.3,1.4-0.3c0.1,0,0.2,0,0.3,0
				c0.1,0,0.2,0,0.3,0.1V18c-0.3-0.1-0.6-0.1-0.9-0.1c-0.3,0-0.7,0.1-1,0.2c-0.3,0.1-0.6,0.3-0.9,0.6c-0.3,0.3-0.5,0.6-0.7,1
				c-0.2,0.4-0.3,1-0.3,1.6v7.5h-3.3V17.4z"/>
			<path class="st0" d="M270.8,38.8h4.8c2.9,0,5.1,0.8,6.6,2.3s2.2,3.9,2.2,6.9c0,1.6-0.2,2.9-0.7,4.1c-0.4,1.2-1.1,2.1-1.8,2.9
				c-0.8,0.8-1.7,1.3-2.8,1.7c-1.1,0.4-2.3,0.6-3.6,0.6h-4.8V38.8z M274.2,54.7h1.1c1,0,1.8-0.2,2.5-0.5c0.7-0.3,1.3-0.8,1.7-1.3
				c0.5-0.6,0.8-1.3,1-2.1s0.3-1.7,0.3-2.7s-0.1-1.9-0.3-2.7c-0.2-0.8-0.6-1.5-1-2.1c-0.5-0.6-1-1-1.7-1.3c-0.7-0.3-1.5-0.5-2.5-0.5
				h-1.1V54.7z"/>
			<path class="st0" d="M287,37.8h3.4V41H287V37.8z M287.1,43.6h3.3v13.6h-3.3V43.6z"/>
			<path class="st0" d="M293.9,59.4c0.4,0.2,0.9,0.5,1.7,0.7c0.7,0.3,1.5,0.4,2.4,0.4c0.8,0,1.4-0.1,1.9-0.4c0.5-0.2,0.8-0.6,1.1-1
				s0.4-0.9,0.5-1.4c0.1-0.5,0.1-1,0.1-1.6v-1.3h-0.1c-0.1,0.3-0.3,0.5-0.5,0.8c-0.2,0.3-0.4,0.5-0.7,0.7c-0.3,0.2-0.6,0.4-1,0.5
				s-0.9,0.2-1.4,0.2c-0.5,0-1-0.1-1.5-0.3s-1.1-0.5-1.5-1c-0.5-0.5-0.9-1.2-1.2-2.1c-0.3-0.9-0.5-2-0.5-3.4c0-0.9,0.1-1.8,0.3-2.7
				c0.2-0.9,0.5-1.6,0.9-2.3c0.4-0.6,0.9-1.2,1.5-1.5c0.6-0.4,1.4-0.6,2.3-0.6c0.5,0,0.9,0.1,1.3,0.2s0.7,0.3,1,0.5
				c0.3,0.2,0.5,0.5,0.7,0.7c0.2,0.3,0.4,0.6,0.6,0.9h0.1c0-0.4,0-0.7,0-1.1s0-0.7,0.1-1.1h3c0,0.4-0.1,0.7-0.1,1.1
				c0,0.4,0,0.7,0,1.1v10.1c0,1.1-0.1,2-0.3,2.9c-0.2,0.9-0.5,1.7-1,2.3c-0.5,0.6-1.1,1.1-1.9,1.5c-0.8,0.4-1.8,0.5-3.1,0.5
				c-1.1,0-2-0.1-2.9-0.3s-1.4-0.4-1.8-0.5L293.9,59.4z M296.5,50.3c0,0.8,0.1,1.5,0.2,2.1c0.1,0.6,0.3,1,0.5,1.4s0.4,0.6,0.7,0.8
				c0.3,0.2,0.5,0.3,0.8,0.3c1,0,1.8-0.4,2.2-1.1c0.4-0.8,0.7-1.9,0.7-3.5c0-1.4-0.2-2.5-0.7-3.3c-0.5-0.8-1.1-1.1-1.9-1.1
				c-0.9,0-1.5,0.4-1.8,1.2C296.7,47.8,296.5,48.9,296.5,50.3z"/>
			<path class="st0" d="M308,37.8h3.4V41H308V37.8z M308.1,43.6h3.3v13.6h-3.3V43.6z"/>
			<path class="st0" d="M315.9,40.8l3.3-1v3.8h2.7V46h-2.7v7.1c0,0.7,0.1,1.2,0.4,1.5s0.6,0.4,1.1,0.4c0.3,0,0.6,0,0.8-0.1
				c0.2-0.1,0.4-0.1,0.5-0.2V57c-0.2,0.1-0.6,0.2-0.9,0.3s-0.8,0.1-1.3,0.1c-1.2,0-2.2-0.3-2.8-0.9c-0.7-0.6-1-1.6-1-3.1V46h-2.2
				v-2.4h2.2V40.8z"/>
			<path class="st0" d="M325.3,44.4c0.5-0.2,1-0.4,1.7-0.7c0.7-0.2,1.6-0.3,2.6-0.3c1.1,0,1.9,0.1,2.6,0.4c0.7,0.2,1.2,0.6,1.6,1.1
				c0.4,0.5,0.6,1.1,0.8,1.7c0.1,0.7,0.2,1.4,0.2,2.3v6c0,0.5,0,1,0.1,1.4c0,0.4,0.1,0.8,0.1,1h-3c-0.1-0.3-0.1-0.6-0.2-0.9
				c0-0.3,0-0.6,0-1h-0.1c-0.4,0.6-0.9,1.1-1.5,1.5s-1.4,0.6-2.3,0.6c-0.5,0-1-0.1-1.5-0.3c-0.5-0.2-0.9-0.4-1.3-0.8
				c-0.4-0.3-0.7-0.8-0.9-1.3c-0.2-0.5-0.3-1.1-0.3-1.7c0-0.9,0.2-1.7,0.5-2.3s0.9-1.1,1.5-1.4c0.6-0.4,1.4-0.6,2.3-0.7
				c0.9-0.1,1.8-0.2,2.9-0.2h0.7v-0.5c0-0.3,0-0.7-0.1-1c-0.1-0.3-0.2-0.6-0.4-0.8s-0.5-0.4-0.8-0.6c-0.3-0.1-0.7-0.2-1.2-0.2
				c-0.4,0-0.8,0-1.2,0.1c-0.4,0.1-0.7,0.2-1.1,0.3c-0.3,0.1-0.6,0.3-0.9,0.4c-0.3,0.2-0.5,0.3-0.6,0.4L325.3,44.4z M331.8,50.6
				h-0.3c-1.4,0-2.5,0.2-3.3,0.5c-0.8,0.4-1.2,1-1.2,2c0,0.6,0.2,1.1,0.6,1.5c0.4,0.4,0.9,0.6,1.5,0.6c1,0,1.7-0.3,2.1-1
				c0.4-0.7,0.6-1.6,0.6-2.9V50.6z"/>
			<path class="st0" d="M338.1,37.4h3.3v19.9h-3.3V37.4z"/>
			<path class="st0" d="M352.7,53.7c0.3,0.2,0.8,0.5,1.5,0.7c0.7,0.3,1.5,0.4,2.4,0.4c0.4,0,0.7-0.1,1.1-0.2
				c0.3-0.1,0.6-0.3,0.9-0.5c0.3-0.2,0.5-0.5,0.6-0.8c0.1-0.3,0.2-0.7,0.2-1.2c0-0.3,0-0.6-0.1-0.9c-0.1-0.2-0.2-0.5-0.5-0.7
				c-0.2-0.2-0.5-0.4-0.8-0.6c-0.3-0.2-0.7-0.4-1.1-0.6l-1.7-1c-0.9-0.5-1.7-1.1-2.2-1.9c-0.5-0.8-0.8-1.7-0.8-2.9
				c0-0.8,0.2-1.6,0.5-2.2s0.7-1.2,1.3-1.6c0.5-0.4,1.1-0.7,1.9-1s1.4-0.3,2.2-0.3c1,0,1.8,0.1,2.5,0.3c0.7,0.2,1.1,0.3,1.4,0.4
				l-0.2,2.8c-0.4-0.2-0.9-0.3-1.4-0.5s-1.2-0.3-2-0.3c-0.8,0-1.5,0.2-1.9,0.6c-0.4,0.4-0.6,0.9-0.6,1.6c0,0.4,0.1,0.7,0.2,0.9
				c0.1,0.2,0.3,0.5,0.4,0.6s0.4,0.4,0.6,0.5c0.2,0.1,0.5,0.3,0.7,0.4l2,1.1c0.5,0.3,1,0.6,1.4,0.9c0.4,0.3,0.7,0.7,1,1
				c0.3,0.4,0.5,0.8,0.6,1.3c0.1,0.5,0.2,1.1,0.2,1.7c0,0.9-0.2,1.8-0.5,2.5c-0.3,0.7-0.8,1.3-1.3,1.7c-0.6,0.5-1.2,0.8-2,1
				c-0.8,0.2-1.6,0.3-2.5,0.3c-1.9,0-3.3-0.3-4.2-0.8L352.7,53.7z"/>
			<path class="st0" d="M374.4,56.9c-0.4,0.1-0.9,0.3-1.4,0.4c-0.5,0.1-1.2,0.2-1.8,0.2c-1.1,0-2.1-0.2-2.9-0.6s-1.5-0.9-2-1.5
				c-0.5-0.6-0.9-1.4-1.2-2.2c-0.2-0.8-0.4-1.8-0.4-2.7s0.1-1.9,0.4-2.7c0.3-0.9,0.7-1.6,1.2-2.2s1.2-1.1,2.1-1.5
				c0.8-0.4,1.8-0.6,3-0.6c0.5,0,1,0.1,1.6,0.2c0.5,0.1,1,0.2,1.3,0.4l-0.2,2.6c-0.3-0.1-0.6-0.3-1-0.4c-0.4-0.1-0.8-0.2-1.3-0.2
				c-1.3,0-2.2,0.4-2.7,1.2c-0.6,0.8-0.8,1.9-0.8,3.4c0,0.6,0.1,1.2,0.2,1.8c0.1,0.5,0.4,1,0.7,1.4c0.3,0.4,0.7,0.7,1.2,1
				c0.5,0.2,1,0.3,1.7,0.3c0.4,0,0.8-0.1,1.3-0.2c0.5-0.1,0.8-0.3,1-0.4L374.4,56.9z"/>
			<path class="st0" d="M376.9,37.4h3.3v8h0.1c0.1-0.2,0.3-0.4,0.5-0.7c0.2-0.2,0.4-0.4,0.7-0.6s0.6-0.4,0.9-0.5
				c0.4-0.1,0.8-0.2,1.3-0.2c0.8,0,1.4,0.1,1.9,0.4c0.5,0.3,0.9,0.6,1.2,1.1c0.3,0.5,0.5,1,0.7,1.6c0.1,0.6,0.2,1.3,0.2,1.9v8.8
				h-3.3v-8.2c0-1.1-0.1-1.8-0.4-2.3c-0.3-0.5-0.8-0.7-1.4-0.7c-0.4,0-0.8,0.1-1.1,0.3c-0.3,0.2-0.5,0.4-0.7,0.7
				c-0.2,0.3-0.3,0.6-0.4,1c-0.1,0.4-0.1,0.8-0.1,1.2v8h-3.3V37.4z"/>
			<path class="st0" d="M390,50.4c0-1.4,0.2-2.5,0.5-3.4s0.8-1.6,1.4-2.1s1.2-0.9,1.9-1.1c0.7-0.2,1.4-0.3,2.1-0.3
				c0.7,0,1.4,0.1,2.1,0.3s1.4,0.6,1.9,1.1c0.6,0.5,1,1.2,1.4,2.1s0.5,2,0.5,3.4c0,1.4-0.2,2.6-0.5,3.5c-0.4,0.9-0.8,1.6-1.4,2.2
				c-0.6,0.5-1.2,0.9-1.9,1.1s-1.4,0.3-2.1,0.3c-0.7,0-1.4-0.1-2.1-0.3c-0.7-0.2-1.4-0.6-1.9-1.1c-0.6-0.5-1.1-1.2-1.4-2.2
				C390.2,53,390,51.8,390,50.4z M393.4,50.4c0,0.6,0,1.1,0.1,1.7c0.1,0.6,0.2,1.1,0.4,1.5c0.2,0.5,0.5,0.8,0.8,1.1
				c0.3,0.3,0.8,0.4,1.3,0.4c0.5,0,1-0.1,1.3-0.4c0.3-0.3,0.6-0.6,0.8-1.1c0.2-0.5,0.3-1,0.4-1.5c0.1-0.6,0.1-1.1,0.1-1.7
				s0-1.1-0.1-1.7s-0.2-1.1-0.4-1.5c-0.2-0.4-0.5-0.8-0.8-1.1c-0.3-0.3-0.8-0.4-1.3-0.4c-0.5,0-1,0.1-1.3,0.4
				c-0.3,0.3-0.6,0.6-0.8,1.1c-0.2,0.4-0.3,0.9-0.4,1.5C393.5,49.3,393.4,49.9,393.4,50.4z"/>
			<path class="st0" d="M404.5,37.4h3.3v19.9h-3.3V37.4z"/>
			<path class="st0" d="M411.8,44.4c0.5-0.2,1-0.4,1.7-0.7c0.7-0.2,1.6-0.3,2.6-0.3c1.1,0,1.9,0.1,2.6,0.4c0.7,0.2,1.2,0.6,1.6,1.1
				c0.4,0.5,0.6,1.1,0.8,1.7c0.2,0.7,0.2,1.4,0.2,2.3v6c0,0.5,0,1,0.1,1.4c0,0.4,0.1,0.8,0.1,1h-3c-0.1-0.3-0.1-0.6-0.2-0.9
				c0-0.3,0-0.6,0-1h-0.1c-0.4,0.6-0.9,1.1-1.5,1.5s-1.4,0.6-2.3,0.6c-0.5,0-1-0.1-1.5-0.3c-0.5-0.2-0.9-0.4-1.3-0.8
				s-0.7-0.8-0.9-1.3c-0.2-0.5-0.3-1.1-0.3-1.7c0-0.9,0.2-1.7,0.5-2.3s0.9-1.1,1.5-1.4c0.6-0.4,1.4-0.6,2.3-0.7
				c0.9-0.1,1.8-0.2,2.9-0.2h0.7v-0.5c0-0.3,0-0.7-0.1-1c-0.1-0.3-0.2-0.6-0.4-0.8s-0.5-0.4-0.8-0.6c-0.3-0.1-0.7-0.2-1.2-0.2
				c-0.4,0-0.8,0-1.2,0.1c-0.4,0.1-0.7,0.2-1.1,0.3c-0.3,0.1-0.6,0.3-0.9,0.4c-0.3,0.2-0.5,0.3-0.6,0.4L411.8,44.4z M418.2,50.6H418
				c-1.4,0-2.5,0.2-3.3,0.5s-1.2,1-1.2,2c0,0.6,0.2,1.1,0.6,1.5c0.4,0.4,0.9,0.6,1.5,0.6c1,0,1.7-0.3,2.1-1c0.4-0.7,0.6-1.6,0.6-2.9
				V50.6z"/>
			<path class="st0" d="M424.4,45.9c0-0.4,0-0.8,0-1.2s0-0.7-0.1-1h3c0,0.4,0,0.8,0.1,1.2s0,0.8,0,1.2h0.1c0.1-0.3,0.2-0.6,0.4-0.9
				c0.2-0.3,0.4-0.6,0.7-0.9c0.3-0.3,0.6-0.5,1-0.7c0.4-0.2,0.8-0.3,1.4-0.3c0.1,0,0.2,0,0.3,0c0.1,0,0.2,0,0.3,0.1v3.1
				c-0.3-0.1-0.6-0.1-0.9-0.1c-0.3,0-0.7,0.1-1,0.2c-0.3,0.1-0.6,0.3-0.9,0.6c-0.3,0.3-0.5,0.6-0.7,1s-0.3,1-0.3,1.6v7.5h-3.3V45.9z
				"/>
			<path class="st0" d="M433.1,54.1c0.1,0.1,0.3,0.1,0.5,0.2c0.2,0.1,0.5,0.2,0.8,0.3c0.3,0.1,0.6,0.2,1,0.3
				c0.4,0.1,0.7,0.1,1.1,0.1c0.6,0,1.1-0.1,1.5-0.3s0.6-0.5,0.6-1.1c0-0.3-0.1-0.5-0.3-0.8s-0.6-0.6-1.2-0.9l-1.4-0.8
				c-0.4-0.2-0.7-0.4-1-0.6c-0.3-0.2-0.6-0.5-0.9-0.8c-0.3-0.3-0.5-0.6-0.7-1c-0.2-0.4-0.3-0.9-0.3-1.4c0-0.5,0.1-0.9,0.3-1.4
				c0.2-0.5,0.5-0.9,0.9-1.2c0.4-0.4,0.9-0.7,1.5-0.9c0.6-0.2,1.2-0.3,2-0.3c0.9,0,1.6,0.1,2.3,0.2c0.6,0.2,1,0.3,1.2,0.3l-0.2,2.5
				c-0.4-0.2-0.8-0.3-1.3-0.4c-0.5-0.1-1-0.2-1.6-0.2c-0.7,0-1.2,0.1-1.4,0.4c-0.3,0.2-0.4,0.6-0.4,1c0,0.4,0.1,0.7,0.4,0.9
				c0.3,0.2,0.6,0.5,1.1,0.8l1.6,1c0.4,0.3,0.8,0.5,1.1,0.8c0.3,0.2,0.6,0.5,0.8,0.8c0.2,0.3,0.4,0.6,0.5,0.9c0.1,0.3,0.2,0.7,0.2,1
				c0,0.6-0.1,1.2-0.4,1.7c-0.3,0.5-0.6,0.9-1.1,1.3c-0.5,0.3-1,0.6-1.6,0.8c-0.6,0.2-1.3,0.3-2,0.3c-0.8,0-1.6-0.1-2.3-0.2
				c-0.7-0.1-1.2-0.3-1.5-0.4L433.1,54.1z"/>
			<path class="st0" d="M444.1,37.4h3.3v8h0.1c0.1-0.2,0.3-0.4,0.5-0.7c0.2-0.2,0.4-0.4,0.7-0.6s0.6-0.4,0.9-0.5
				c0.4-0.1,0.8-0.2,1.3-0.2c0.8,0,1.4,0.1,1.9,0.4c0.5,0.3,0.9,0.6,1.2,1.1c0.3,0.5,0.5,1,0.7,1.6c0.1,0.6,0.2,1.3,0.2,1.9v8.8
				h-3.3v-8.2c0-1.1-0.1-1.8-0.4-2.3c-0.3-0.5-0.8-0.7-1.4-0.7c-0.4,0-0.8,0.1-1.1,0.3c-0.3,0.2-0.5,0.4-0.7,0.7
				c-0.2,0.3-0.3,0.6-0.4,1c-0.1,0.4-0.1,0.8-0.1,1.2v8h-3.3V37.4z"/>
			<path class="st0" d="M457.9,37.8h3.4V41h-3.4V37.8z M458.1,43.6h3.3v13.6h-3.3V43.6z"/>
			<path class="st0" d="M464.4,45.9c0-0.5,0-0.9,0-1.4s0-0.7-0.1-1h3.1c0,0.2,0.1,0.5,0.1,0.9c0,0.4,0,0.8,0,1.3h0.1
				c0.1-0.3,0.3-0.6,0.5-0.8c0.2-0.3,0.4-0.5,0.7-0.8s0.6-0.4,1-0.5s0.9-0.2,1.4-0.2c0.8,0,1.6,0.2,2.2,0.6c0.6,0.4,1.1,0.9,1.5,1.5
				c0.4,0.6,0.7,1.4,0.8,2.2c0.2,0.8,0.3,1.7,0.3,2.7c0,2.2-0.4,4-1.2,5.2c-0.8,1.2-2,1.8-3.5,1.8c-0.5,0-0.9-0.1-1.3-0.2
				s-0.7-0.3-1-0.5c-0.3-0.2-0.5-0.4-0.7-0.7c-0.2-0.3-0.4-0.5-0.5-0.8h-0.1V63h-3.3V45.9z M467.7,50.5c0,0.7,0,1.3,0.1,1.8
				c0.1,0.6,0.2,1,0.5,1.4s0.5,0.7,0.8,1c0.3,0.2,0.7,0.3,1.2,0.3c0.9,0,1.6-0.4,1.9-1.2c0.4-0.8,0.5-1.9,0.5-3.3
				c0-1.6-0.2-2.8-0.5-3.6s-1-1.2-1.9-1.2c-0.5,0-0.9,0.1-1.2,0.4c-0.3,0.2-0.6,0.6-0.8,1s-0.3,0.9-0.4,1.5
				C467.8,49.2,467.7,49.8,467.7,50.5z"/>
		</g>
		<g>
			<polygon class="st0" points="248.7,96.6 248.7,7.4 249.7,7.4 249.7,96.6 248.7,96.6 			"/>
			<g>
				<g>
					<g>
						<g>
							<path class="st0" d="M89.4,54.5c0,2.7,1.8,4,4.1,4c3.2,0,4-2.1,4-4.2v-5.6c0-1.7-1.6-1-1.6-1.7c0-0.1,0.1-0.2,0.2-0.2
								c0.7,0,1.3,0.1,2,0.1c0.3,0,0.6-0.1,0.9-0.1c0.1,0,0.2,0.1,0.2,0.2c0,0.5-1,0.1-1,1.7v5.3c0,0.8,0.2,5.1-4.8,5.1
								c-4.5,0-5.4-2.5-5.4-5.2v-5.8c0-1-1.4-0.6-1.4-1.1c0-0.1,0.3-0.2,0.4-0.2c0.4,0,0.9,0.1,1.3,0.1c0.6,0,1.1-0.1,1.6-0.1
								c0.1,0,0.5,0,0.5,0.2c0,0.5-1.1,0-1.1,1.2V54.5z"/>
							<path class="st0" d="M105.7,50.3c0-3.6-2.1-2.6-2.1-3.2c0-0.1,0.2-0.2,0.3-0.2c0.3,0,0.5,0.1,0.8,0.1c0.3,0,0.5-0.1,0.8-0.1
								c0.2,0,0.3,0.3,0.4,0.4l8.2,9.1c0.1,0.1,0.2,0.2,0.2,0.2c0,0,0.1-0.1,0.1-0.2v-7.2c0-2.3-1.9-1.6-1.9-2.2
								c0-0.1,0.1-0.2,0.2-0.2c0.5,0,1,0.1,1.6,0.1c0.6,0,1.3-0.1,1.7-0.1c0.1,0,0.2,0,0.2,0.2c0,0.4-1,0.1-1,1.4v10
								c0,0.5,0,0.7-0.2,0.7c-0.1,0-0.3-0.1-0.6-0.5l-7.4-8.3c0,0-0.2-0.3-0.4-0.3c-0.1,0-0.1,0-0.1,0.4v7c0,1.5,1.5,0.9,1.5,1.4
								c0,0.1,0,0.2-0.2,0.2c-0.4,0-0.9-0.1-1.7-0.1c-0.6,0-1.5,0.1-1.6,0.1c-0.2,0-0.2-0.1-0.2-0.2c0-0.6,1.5,0.2,1.5-2.2V50.3z"/>
							<path class="st0" d="M123.1,48.4c0-1.3-1.4-0.9-1.4-1.3c0-0.2,0-0.2,0.2-0.2c0.6,0,1.3,0.1,1.9,0.1c0.5,0,1.1-0.1,1.6-0.1
								c0.3,0,0.3,0,0.3,0.2c0,0.4-1.2,0-1.2,1.3v9.2c0,1.2,1.5,0.8,1.5,1.3c0,0.1-0.1,0.2-0.3,0.2c-0.4,0-1.1-0.1-1.9-0.1
								c-1,0-1.4,0.1-1.6,0.1c-0.3,0-0.4-0.1-0.4-0.3c0-0.5,1.3,0.1,1.3-1.6V48.4z"/>
							<path class="st0" d="M131.4,48.3c-0.4-1-1.3-0.7-1.3-1.1c0-0.2,0.1-0.2,0.2-0.2c0.5,0,1.1,0.1,1.6,0.1c0.5,0,1.1-0.1,1.4-0.1
								c0.1,0,0.2,0.1,0.2,0.2c0,0.2-0.7,0.3-0.7,0.9c0,0.2,0.1,0.5,0.2,0.7l3,7.1c0.4,0.9,0.5,1.3,0.7,1.3c0.2,0,0.2-0.3,0.3-0.5
								l3-7.4c0.1-0.3,0.3-0.8,0.2-1.2c0-0.8-1.1-0.5-1.1-0.9c0-0.2,0.1-0.2,0.3-0.2c0.4,0,0.8,0.1,1.1,0.1c0.8,0,1.1-0.1,1.3-0.1
								c0.2,0,0.3,0.1,0.3,0.2c0,0.4-0.5,0-1,1.1l-4.3,10.1c-0.2,0.4-0.3,1-0.6,1c-0.3,0-0.5-0.7-0.6-1.1L131.4,48.3z"/>
							<path class="st0" d="M162.4,48.1c0-0.7,0.4-0.6,1-0.6c1.7,0,3.3,0.7,3.3,2.8c0,2.1-1.7,2.4-2.4,2.4c-0.8,0-1.9,0.1-1.9-0.2
								V48.1z M165.8,52.9c1.2-0.5,2.2-1.6,2.2-3c0-3.3-3.8-3-4.1-3c-0.9,0-1.9,0.1-2.9,0.1c-0.9,0-0.8-0.1-1.1-0.1
								c-0.2,0-0.3,0.1-0.3,0.2c0,0.6,1.5-0.1,1.5,1.5v8.7c0,1.3-1.3,1.1-1.3,1.5c0,0.1,0.1,0.2,0.2,0.2c0.7,0,1.3-0.1,2-0.1
								c1.4,0,1.8,0.1,2,0.1c0.1,0,0.3,0,0.3-0.1c0-0.6-1.8-0.1-1.8-1.5v-3.6c0-0.2-0.1-0.5,0.5-0.5c1.9,0,1.7-0.1,2.3,0.9l1.9,3
								c0.7,1,1.3,1.9,2.6,1.9c0.2,0,1.1,0,1.1-0.2c0-0.4-0.8,0.2-2.1-1.7L165.8,52.9z"/>
							<path class="st0" d="M174.1,56c-0.1-0.3,0-0.5,0.2-0.5c0.2,0,0.2,0.2,0.3,0.6c0.2,0.8,1.2,2.6,3.6,2.6c1.6,0,3.3-0.9,3.3-2.7
								c0-3.3-7-1.5-7-5.9c0-2.2,1.8-3.2,3.8-3.2c2.1,0,2.7,0.6,2.9,0.6c0.2,0,0.2-0.2,0.4-0.2c0.1,0,0.2,0.1,0.2,0.2l0.3,2.3
								c0,0.1,0,0.3-0.2,0.3c-0.2,0-0.3-0.4-0.4-0.5c-0.5-1.5-1.8-2.2-3.3-2.2c-1.4,0-2.8,0.7-2.8,2.2c0,3.2,7,1.3,7,6.1
								c0,1.4-1,3.6-4.9,3.6c-1.3,0-2.8-0.6-2.9-0.9L174.1,56z"/>
							<path class="st0" d="M188.9,48.4c0-1.3-1.4-0.9-1.4-1.3c0-0.2,0-0.2,0.2-0.2c0.6,0,1.3,0.1,1.9,0.1c0.5,0,1.1-0.1,1.6-0.1
								c0.3,0,0.3,0,0.3,0.2c0,0.4-1.2,0-1.2,1.3v9.2c0,1.2,1.5,0.8,1.5,1.3c0,0.1-0.1,0.2-0.3,0.2c-0.4,0-1.1-0.1-1.9-0.1
								c-1,0-1.4,0.1-1.6,0.1c-0.3,0-0.4-0.1-0.4-0.3c0-0.5,1.3,0.1,1.3-1.6V48.4z"/>
							<path class="st0" d="M200.7,48.7c0-0.1,0.1-0.8-0.2-0.8h-2.8c-1.1,0-1.1,0.3-1.4,1.2c-0.1,0.2-0.1,0.4-0.3,0.4
								c-0.1,0-0.2-0.1-0.2-0.2l0.2-1.7c0-0.2,0-0.7,0.3-0.7c1.3,0,2.7,0.1,4.9,0.1c3.1,0,4.7-0.1,5-0.1c0.4,0,0.5,0.1,0.5,0.5
								l0.1,1.4c0,0.2,0,0.4-0.2,0.4c-0.6,0,0.3-1.3-1.5-1.3h-2.5c-0.8,0-0.7-0.1-0.7,0.8v8.8c0,1.4,1.4,0.9,1.4,1.4
								c0,0.1,0,0.2-0.2,0.2c-0.4,0-0.9-0.1-1.4-0.1c-1.9,0-2.2,0.1-2.4,0.1c-0.2,0-0.2,0-0.2-0.2c0-0.4,1.4-0.2,1.4-1.3V48.7z"/>
							<path class="st0" d="M211.4,48c-0.4-0.7-1.3-0.5-1.3-0.8c0-0.1,0.1-0.3,0.2-0.3c0.5,0,0.8,0.1,2,0.1c0.6,0,1-0.1,1.2-0.1
								c0.1,0,0.3,0,0.3,0.2c0,0.3-0.8,0.3-0.8,0.8c0,0.3,0.2,0.6,0.3,0.7l2.1,3.3c0.1,0.2,0.2,0.3,0.3,0.3c0.1,0,0.2-0.1,0.3-0.3
								l1.8-2.9c0.1-0.2,0.4-0.5,0.4-0.9c0-0.8-1.3-0.5-1.3-0.9c0-0.2,0.2-0.3,0.4-0.3c0.4,0,0.8,0.1,1.3,0.1c0.5,0,1-0.1,1.5-0.1
								c0.1,0,0.2,0.1,0.2,0.2c0,0.2-0.3,0.3-0.4,0.3c-0.5,0.3-0.7,0.8-1,1.2l-2.4,3.7c-0.3,0.4-0.4,0.5-0.4,0.8v4.2
								c0,1.5,1.4,1,1.4,1.5c0,0.2-0.2,0.2-0.4,0.2c-0.3,0-1.3-0.1-1.9-0.1c-0.8,0-1.4,0.1-1.5,0.1c-0.2,0-0.3,0-0.3-0.2
								c0-0.5,1.3,0,1.3-1.3v-4.2c0-0.3-0.3-0.7-0.4-0.9L211.4,48z"/>
							<path class="st0" d="M148.7,51.9c0,0.6,0,0.6,0.7,0.6h1.9c1.8,0,1.3-1.4,1.7-1.4c0.1,0,0.2,0.2,0.2,0.3c0,0.6,0,1.2,0,1.7
								c0,0.4,0,0.9,0,1.4c0,0.2-0.1,0.2-0.2,0.2c-0.5,0,0.1-1.5-1.4-1.5H149c-0.4,0-0.3,0.3-0.3,0.5v3.2c0,1-0.1,1.4,1.3,1.4
								c3.9,0,4.5-1.8,4.8-1.8c0.1,0,0.1,0.2,0.1,0.2c0,0.6-0.4,1.2-0.9,1.7c-0.5,0.6-0.9,0.6-1.7,0.6c-1.3,0-2.6-0.1-3.9-0.1
								c-0.7,0-1.4,0.1-2.1,0.1c-0.2,0-0.3,0-0.3-0.2c0-0.2,0.2-0.2,0.8-0.4c0.4-0.2,0.5-0.7,0.5-1.5v-7.8c0-0.8,0-1.6-0.9-1.7
								c-0.1,0-0.5-0.1-0.5-0.3c0-0.1,0.1-0.2,0.6-0.2c3.2,0,4.1,0.1,4.8,0.1c0.3,0,1.9-0.1,2.4-0.1c0.1,0,0.2,0.2,0.2,0.4
								c0,1.9-0.2,2-0.3,2c-0.4,0-0.1-0.8-0.4-1.2c-0.4-0.6-2.2-0.5-2.9-0.5c-1.6,0-1.6-0.1-1.6,1.1V51.9z"/>
						</g>
					</g>
				</g>
			</g>
			<g>
				<path class="st0" d="M158.5,10.6c8.1,0,13.2,7.3,13.2,14.9c0,7.7-4.8,12.5-10.9,12.5c-8.2,0-13.2-7.4-13.2-15.1
					C147.5,16.4,151.5,10.6,158.5,10.6z M159,39.2c9.2,0,15.6-6,15.6-15.3c0-8.6-6.5-14.7-14.9-14.7c-8.5,0-15.2,6.3-15.2,14.9
					C144.5,32.8,150,39.2,159,39.2z"/>
				<path class="st0" d="M183,12.5c0-1.6,0.8-1.5,2.3-1.5c4,0,7.7,1.6,7.7,6.6c0,5-3.9,5.7-5.6,5.7c-1.9,0-4.4,0.2-4.4-0.6V12.5z
					 M190.9,23.5c2.8-1.1,5.1-3.8,5.1-6.9c0-7.8-8.9-7-9.5-7c-2.1,0-4.4,0.2-6.7,0.2c-2.1,0-1.9-0.2-2.6-0.2c-0.5,0-0.8,0.2-0.8,0.5
					c0,1.4,3.5-0.3,3.5,3.6v20.5c0,3.1-2.9,2.5-2.9,3.5c0,0.2,0.2,0.4,0.4,0.4c1.5,0,3-0.2,4.6-0.2c3.3,0,4.3,0.2,4.6,0.2
					c0.3,0,0.7,0.1,0.7-0.3c0-1.4-4.2-0.1-4.2-3.6v-8.5c0-0.4-0.2-1.1,1-1.1c4.5,0,3.9-0.1,5.4,2.1l4.5,7c1.5,2.3,3.1,4.4,6,4.4
					c0.4,0,3.5,0,3.5-0.5c0-1-2.9,0.5-5.8-3.9L190.9,23.5z"/>
				<path class="st0" d="M202.7,12.2c-1-1.7-3-1.2-3-1.9c0-0.3,0.2-0.6,0.5-0.6c1.1,0,1.8,0.2,4.6,0.2c1.3,0,2.4-0.2,2.8-0.2
					c0.3,0,0.8,0,0.8,0.4c0,0.7-1.9,0.7-1.9,1.9c0,0.6,0.5,1.3,0.7,1.6l4.8,7.8c0.3,0.5,0.6,0.7,0.8,0.7c0.2,0,0.4-0.3,0.8-0.8
					l4.1-6.7c0.3-0.4,0.8-1.1,0.8-2.2c0-2-3-1.1-3-2.1c0-0.5,0.4-0.6,0.8-0.6c1,0,2,0.2,2.9,0.2c1.2,0,2.3-0.2,3.5-0.2
					c0.2,0,0.4,0.3,0.4,0.5c0,0.4-0.7,0.6-1,0.8c-1.1,0.6-1.6,1.8-2.2,2.8l-5.6,8.8c-0.6,1-1,1.2-1,1.8v9.9c0,3.5,3.3,2.4,3.3,3.6
					c0,0.4-0.4,0.4-0.9,0.4c-0.6,0-2.9-0.2-4.4-0.2c-1.8,0-3.2,0.2-3.6,0.2c-0.4,0-0.6,0-0.6-0.5c0-1.1,3.1-0.1,3.1-2.9V25
					c0-0.8-0.6-1.6-0.9-2.1L202.7,12.2z"/>
				<path class="st0" d="M140,34.4c0.2,3.4,3.2,1.9,3.2,3.3c0,0.4-0.5,0.4-1,0.4c-0.8,0-2.2-0.2-3.8-0.2c-1.2,0-2.5,0.2-3.5,0.2
					c-0.4,0-0.4-0.2-0.4-0.4c0-1.2,2.5-0.3,2.5-3.3l-1.1-15.6c0-1-0.2-1.6-0.4-1.6c-0.3,0-0.6,0.4-1.1,1.2l-8.3,16.9
					c-0.2,0.4-0.8,2-1.2,2c-0.4,0-0.7-0.9-0.8-1.2l-8.6-17.9c-0.1-0.3-0.3-0.4-0.5-0.4c-0.1,0-0.2,0.2-0.3,0.6l-1.2,14.1
					c-0.2,5.3,3.6,3.6,3.6,5c0,0.4-0.4,0.4-1,0.4c-0.5,0-2.3-0.2-3.5-0.2c-2.1,0-2.8,0.2-3.5,0.2c-0.3,0-0.4-0.2-0.4-0.5
					c0-1.4,2.6,0.3,2.8-3.9c0.5-6.6,1-10.8,1-15.1c0-9.5-3.1-7.2-3.1-8.6c0-0.4,0.3-0.4,0.7-0.4c0.7,0,1.4,0.2,2.2,0.2
					c0.7,0,1.4-0.2,2.1-0.2c0.6,0,0.6,0.7,0.8,1.1l9.6,20.4c0.4,0.8,0.6,1.2,0.9,1.2c0.2,0,0.6-0.8,1.2-2.2l9.6-19.2
					c0.2-0.4,0.6-1.4,1-1.4c0.4,0,1.7,0.2,1.9,0.2c0.9,0,1.3-0.2,1.9-0.2c0.2,0,0.4,0.2,0.4,0.5c0,1.3-3.2-0.4-3.1,4.3L140,34.4z"/>
				<path class="st0" d="M91.1,21.4c0,1.4-0.1,1.4,1.5,1.4H97c4.2,0,3.1-3.2,4-3.2c0.3,0,0.4,0.4,0.4,0.8c0,1.4-0.1,2.8-0.1,4
					c0,1,0.1,2.1,0.1,3.2c0,0.4-0.2,0.5-0.4,0.5c-1.2,0,0.1-3.5-3.2-3.5h-5.9c-0.8,0-0.7,0.7-0.7,1.3v7.4c0,2.4-0.3,3.3,3,3.3
					c9.2,0,10.6-4.1,11.1-4.1c0.3,0,0.3,0.4,0.3,0.5c0,1.4-1,2.9-2,3.9c-1.3,1.5-2.2,1.4-3.9,1.4c-3.1,0-6.1-0.2-9.1-0.2
					c-1.6,0-3.3,0.2-4.9,0.2c-0.4,0-0.6-0.1-0.6-0.4c0.1-0.5,0.5-0.4,1.8-1.1c1-0.5,1.1-1.6,1.1-3.5V14.8c0-1.8,0-3.7-2.2-4.1
					c-0.3-0.1-1.2-0.2-1.2-0.6c0-0.3,0.2-0.5,1.4-0.5c7.6,0,9.6,0.2,11.3,0.2c0.8,0,4.5-0.2,5.7-0.2c0.3,0,0.4,0.4,0.4,0.9
					c0,4.5-0.6,4.8-0.8,4.8c-1,0-0.3-1.9-1-2.9c-1-1.4-5.2-1.1-6.8-1.1c-3.8,0-3.8-0.2-3.8,2.5V21.4z"/>
			</g>
			<g>
				<g>
					<path class="st0" d="M32.7,61.6C6.3,49.4,9.4,22.2,9.4,9.4l46.7,0C56.1,22.2,59.1,49.5,32.7,61.6z M9.4,7.3l-2,2.1
						c0,1.5-0.1,3.4-0.1,4.4c-0.2,15,0.8,38.3,25.2,49.5c12.9-6,22.6-16.2,25.2-32.1c1.5-9.2,0.6-18,0.6-23.8L9.4,7.3z"/>
				</g>
				<g>
					<path class="st0" d="M22.7,40.8c-1.9,2-3.7,4-4.3,4.6c-0.1,0.2-0.2,0.3-0.1,0.4c0.1,0.1,0.3,0.3,0.4,0.3c0.1,0,0.2,0.1,0.4-0.1
						c0.1-0.1,2.1-2.1,4.6-4.4c0,0-0.2-0.1-0.5-0.3C22.9,41.1,22.7,40.8,22.7,40.8z"/>
					<g>
						<path class="st0" d="M23.9,40.3c0.5,0.5,1.3,0.9,1.3,0.9l-0.4,0.4c-0.2,0.2-0.8-0.1-1.3-0.6c-0.6-0.5-0.9-1.1-0.8-1.3l0.5-0.4
							C23.1,39.3,23.5,39.8,23.9,40.3z"/>
					</g>
					<g>
						<g>
							<g>
								<path class="st0" d="M45.3,45.4c0.4-0.4,0.4-0.7,0.4-0.7l0.4,0.2c0.1,0.1,0,0.6-0.4,1c-0.4,0.4-0.9,0.5-1,0.4l-0.2-0.5
									C44.4,45.8,44.9,45.8,45.3,45.4z"/>
							</g>
						</g>
						<g>
							<g>
								<path class="st0" d="M44.6,44.7c0.3-0.2,0.3-0.5,0.3-0.5l0.3,0.2c0.1,0.1,0,0.4-0.3,0.7c-0.3,0.3-0.7,0.4-0.8,0.3L44,45.1
									C44,45.1,44.4,45,44.6,44.7z"/>
							</g>
						</g>
					</g>
				</g>
				<g>
					<path class="st0" d="M45.9,23.4l-0.5,0.4c-0.7,0.3-2.2-0.9-3.4-2c-0.8-0.7-2.4-2.5-2-3.2l0.2-0.2c-0.1-0.1-0.3-0.2-0.4-0.2
						c-0.1-0.1-0.3-0.1-0.5-0.1c-0.2,0-0.3,0.1-0.4,0.3c0,0.3,0.2,0.8,0.4,1.3c0.3,0.5,1.3,2,3.3,3.6c0.9,0.7,2,1.2,2.8,1.5
						c0.1,0.1,0.6,0.2,0.8-0.1c0.2-0.2,0-0.6-0.2-0.9C46.1,23.6,46,23.5,45.9,23.4z"/>
				</g>
				<path class="st0" d="M44.9,18.7"/>
				<path class="st0" d="M43.9,18.3"/>
				<path class="st0" d="M24.7,15.8c0,0.2,0,0.3,0,0.5c0,0.5,0.5,4.6,2.8,7.6c2,2.5,8.2,9.9,9.2,11.1c0.9,1.1,7,8.2,7.7,9.1
					c0,0,0.1,0.1,0.1,0.1c0,0-0.1,0.2-0.3,0.3c-0.2,0.2-0.4,0.2-0.4,0.2c0,0-0.2-0.2-0.2-0.2C43.5,44.1,33.1,33.7,32,32.7
					c-1-1-6.4-6.2-8.6-7.6c-1.9-1.2-2.8-1.9-4.9-2.1c0,0-1.5-0.1-1.6-0.1c0,0,0-0.1,0-0.1c0.9-0.4,3-1.6,4.6-3.1
					c2.2-2.1,3-3.6,3.1-3.9C24.6,15.8,24.7,15.8,24.7,15.8z M26.2,24.7c-2.2-2.2-3-2.7-4-3.1c-0.5-0.2-1-0.4-1.2-0.3
					c-0.4,0.2-1.1,0.4-1.5,0.8c-0.3,0.3-0.3,0.4-0.1,0.5c0.2,0.1,1.3,0.3,2.3,0.9c1.8,0.9,5.1,3.2,12.3,10.7
					c3.7,3.8,9.4,9.6,9.4,9.6l0.1-0.1c0,0-8.4-9.4-14.9-16.3C27.8,26.2,27,25.4,26.2,24.7z"/>
				<path class="st0" d="M45.8,23.3"/>
				<path class="st0" d="M19.8,20.2c-1,0.8-2.1,1.5-3.2,2c-0.7,0.3-1.6,0-0.9-1.3c0.2-0.4,0.5-0.9,0.9-1.4c1.3-1.7,3.5-3.7,5.7-4.9
					c0.7-0.4,1.3-0.6,1.6-0.6c0.5,0,0.6,0.5,0.5,0.9C24,15.8,22.5,17.9,19.8,20.2z M20.4,19c0.2-0.2,1.1-1.1,1.8-2
					c0.8-0.9,1.2-1.7,1.2-1.7s0.1-0.3,0.1-0.4c0-0.1-0.2-0.2-0.2-0.2c-0.1-0.1-2,0.8-2.8,1.6c-0.1,0.1-0.3,0.5-0.4,0.8
					c-0.1,0.2,0.6,0.9,0.1,1.9C20.3,19,20.4,19,20.4,19z"/>
				<path class="st0" d="M24.7,16.1"/>
				<g>
					<path class="st0" d="M31.9,33.3c-0.4,0.4-7.2,6.9-7.2,6.9c0.1,0.1,0.4,0.3,0.4,0.3s6.2-6,6.7-6.4c0.1-0.1,0.4-0.4,0.5-0.5
						L31.9,33.3z"/>
					<path class="st0" d="M44.7,25.3c0.1,0,0.2,0,0.3,0c0.1,0,0.2,0,0.3-0.1c0.1,0,0.1-0.1,0-0.1c-0.3,0-0.9-0.2-1.6-0.5
						c-0.4,0.1-1.1,0.3-1.8,0.6c-1,0.4-3.1,1.7-7.5,5.8l0.3,0.4c1.5-1.4,3.6-3.2,4.7-3.9c2-1.3,3.4-1.9,4.3-2.1
						C43.9,25.3,44.3,25.3,44.7,25.3z"/>
				</g>
				<g>
					<path class="st0" d="M40.4,22.1c-1.2-1.3-1.6-2.2-1.8-2.8c0,0,0,0,0-0.1c0,0-0.1,0-0.1,0c0,0,0,0.1,0,0.1
						c-0.1,1.3,0,1.8-0.5,3.2c-0.5,1.1-1.3,2.5-2.4,3.8c-0.6,0.7-1.7,2-2.7,3.1l0.7,0.8c0.1-0.1,0.3-0.3,0.5-0.6
						c3.3-3.6,6.3-5.8,7.3-6.6C41.1,22.7,40.7,22.4,40.4,22.1z"/>
					<path class="st0" d="M30.5,32c-1.4,1.6-2.8,3.2-3.2,3.6c-0.3,0.4-3.4,3.7-3.4,3.7s0.1,0.1,0.2,0.2c0.1,0.1,0.3,0.3,0.3,0.3
						s6.5-6.7,7-7.2L30.5,32z"/>
				</g>
				<path class="st0" d="M41.6,17.7c0-0.1,0-0.1,0-0.1c-0.3-0.1-0.6-0.1-0.7,0.1c-0.4,0.5,0.5,2,2.1,3.5c1.6,1.5,3.2,2.3,3.6,1.8
					c0.2-0.2,0.1-0.5-0.1-1C44.2,22.2,41.6,19.2,41.6,17.7z"/>
				<path class="st0" d="M48.7,18.3c-0.2,0.3-0.6,0.9-0.8,1.1c0.2-0.2,0.4-0.8,0.1-2.2c-0.2-1-0.3-1.3-0.4-1.6
					c-0.1-0.2-0.2-0.1-0.3,0c-0.1,0.1-0.4,0.6-0.4,0.7c0,0.1,0,0-0.5-1.4C46.1,13.9,46,13.3,46,13c0-0.2,0-0.3,0-0.5
					c0-0.1-0.1-0.1-0.3,0c-0.2,0.1-1.4,0.9-1.9,2.2c-0.3,0.7-0.3,1.3-0.4,1C43.3,15,43.3,15,43.3,15c-0.4,0.1-1.8,0.8-1.8,2.7
					c0,1.6,3,5,5.5,4.3c0,0,1.9-0.4,1.9-2C48.9,18.2,48.7,18.3,48.7,18.3z M48.1,20.4c-0.1,0.2-0.4,0.6-1,0.8
					c-0.6,0.3-1.4,0.3-1.8,0.2c-1.8-0.6-2.9-2.4-2.9-2.4c-1.4-2.3,0.5-3.3,0.7-3.3c0,0-0.2,0.8-0.1,1.3c0.1,0.5,0.4,0.8,0.5,1.1
					c0.2,0.5-0.1,0.9-0.2,1c-0.1,0.1,0.1,0,0.1,0c0,0,0,0,0.1-0.1c0.3-0.2,0.5-0.5,0.4-0.8c-0.2-0.7-0.7-1.2-0.1-2.6
					c0.4-0.9,1.2-1.8,1.3-1.8c0.1-0.1,0.2-0.2,0.2-0.1c0,0.1,0.2,0.8,0.2,1.2c0.1,0.4,0.6,1.3,0.5,2.5c-0.1,1.2-2.1,2.6-2.4,2.6
					c-0.1,0-0.2,0.1-0.3,0.1c-0.1,0.1,0,0.1,0.1,0.1c0.1,0,1-0.2,1.6-0.7c0.6-0.4,1.1-1,1.3-1.3c0.3-0.7,0.5-1.6,0.6-1.6
					c0.1-0.1,0.1-0.1,0.1-0.1c0,0.1,0.2,0.6,0.2,0.9c0,0.2,0.1,0.6,0.1,1c0,0.9-0.3,1.3-0.8,1.7c-0.3,0.2-0.6,0.3-1,0.4l-0.1,0
					c-0.1,0-0.1,0,0,0.1c0,0,0.1,0,0.1,0.1c0.3,0.1,0.9,0.1,1.4-0.1c0.2-0.1,0.4-0.3,0.8-0.6c0.1-0.1,0.3-0.4,0.3-0.3
					C48.2,19.6,48.3,20,48.1,20.4z"/>
			</g>
		</g>
	</g>
	<g>
		<path class="st0" d="M269.8,81.4c0-1.3,0.2-2.3,0.5-3.2c0.3-0.9,0.7-1.6,1.2-2.2c0.5-0.6,1.1-1,1.8-1.3c0.7-0.3,1.4-0.4,2.1-0.4
			c0.7,0,1.4,0.1,2.1,0.4c0.7,0.3,1.3,0.7,1.8,1.3c0.5,0.6,0.9,1.3,1.2,2.2c0.3,0.9,0.5,2,0.5,3.2s-0.2,2.3-0.5,3.2
			c-0.3,0.9-0.7,1.7-1.2,2.2c-0.5,0.6-1.1,1-1.8,1.3c-0.7,0.3-1.4,0.4-2.1,0.4c-0.7,0-1.4-0.1-2.1-0.4c-0.7-0.3-1.3-0.7-1.8-1.3
			c-0.5-0.6-0.9-1.3-1.2-2.2C269.9,83.8,269.8,82.7,269.8,81.4z M272.4,81.4c0,1,0.1,1.8,0.2,2.4c0.2,0.7,0.4,1.2,0.6,1.6
			c0.3,0.4,0.6,0.7,0.9,0.9c0.4,0.2,0.7,0.3,1.1,0.3c0.4,0,0.8-0.1,1.1-0.3c0.4-0.2,0.7-0.5,0.9-0.9c0.3-0.4,0.5-0.9,0.6-1.6
			c0.2-0.7,0.2-1.5,0.2-2.4s-0.1-1.8-0.2-2.4c-0.2-0.7-0.4-1.2-0.6-1.6c-0.3-0.4-0.6-0.7-0.9-0.9c-0.4-0.2-0.7-0.3-1.1-0.3
			c-0.4,0-0.8,0.1-1.1,0.3c-0.4,0.2-0.7,0.5-0.9,0.9s-0.5,0.9-0.6,1.6C272.5,79.7,272.4,80.5,272.4,81.4z"/>
		<path class="st0" d="M284,79.9h-1.7v-1.8h1.7V76c0-0.4,0-0.7,0.1-1.1c0.1-0.3,0.3-0.6,0.5-0.9s0.5-0.5,0.9-0.6s0.8-0.2,1.4-0.2
			c0.3,0,0.7,0,1,0.1c0.3,0.1,0.6,0.1,0.8,0.2l-0.1,1.8c-0.1,0-0.3-0.1-0.5-0.1c-0.2,0-0.3,0-0.5,0c-0.4,0-0.6,0.1-0.9,0.3
			c-0.2,0.2-0.3,0.5-0.3,0.9v1.8h1.9v1.8h-1.9v8.5H284V79.9z"/>
		<path class="st0" d="M309.7,88.2c-0.3,0.1-0.6,0.2-1.1,0.3c-0.4,0.1-0.9,0.1-1.4,0.1c-0.9,0-1.6-0.1-2.2-0.4
			c-0.6-0.3-1.1-0.7-1.5-1.1s-0.7-1-0.9-1.7c-0.2-0.6-0.3-1.3-0.3-2.1s0.1-1.4,0.3-2.1s0.5-1.2,0.9-1.7c0.4-0.5,0.9-0.9,1.5-1.1
			c0.6-0.3,1.4-0.4,2.2-0.4c0.4,0,0.8,0,1.2,0.1c0.4,0.1,0.7,0.2,1,0.3l-0.1,2c-0.2-0.1-0.5-0.2-0.8-0.3c-0.3-0.1-0.6-0.2-1-0.2
			c-0.9,0-1.6,0.3-2.1,0.9s-0.6,1.5-0.6,2.6c0,0.5,0.1,0.9,0.2,1.3c0.1,0.4,0.3,0.8,0.5,1.1s0.5,0.5,0.9,0.7
			c0.4,0.2,0.8,0.3,1.2,0.3c0.3,0,0.6-0.1,1-0.2c0.3-0.1,0.6-0.2,0.8-0.3L309.7,88.2z"/>
		<path class="st0" d="M318.6,87.9c-0.3,0.1-0.7,0.2-1.2,0.4c-0.5,0.2-1.2,0.2-1.9,0.2c-0.8,0-1.5-0.1-2.1-0.4
			c-0.6-0.3-1.1-0.7-1.5-1.1s-0.7-1-0.9-1.6c-0.2-0.6-0.3-1.3-0.3-2c0-0.8,0.1-1.5,0.3-2.1c0.2-0.7,0.5-1.2,0.8-1.7
			c0.4-0.5,0.8-0.9,1.3-1.2c0.5-0.3,1.1-0.4,1.8-0.4c0.6,0,1.1,0.1,1.6,0.3c0.5,0.2,0.9,0.5,1.3,0.9s0.7,1,0.9,1.7
			c0.2,0.7,0.3,1.6,0.3,2.6v0.5h-6c0,0.9,0.2,1.6,0.6,2.1c0.4,0.5,1.1,0.8,2,0.8c0.8,0,1.3-0.1,1.8-0.3c0.4-0.2,0.7-0.4,1-0.5
			L318.6,87.9z M316.7,82.4c0-1.8-0.6-2.7-1.7-2.7c-0.3,0-0.6,0.1-0.8,0.2c-0.2,0.2-0.4,0.4-0.6,0.6c-0.2,0.3-0.3,0.5-0.3,0.9
			c-0.1,0.3-0.1,0.7-0.1,1H316.7z"/>
		<path class="st0" d="M324.7,83.3c0-1.1,0.1-1.9,0.4-2.6s0.6-1.2,1.1-1.6c0.4-0.4,0.9-0.7,1.5-0.8c0.5-0.2,1.1-0.2,1.6-0.2
			c0.5,0,1.1,0.1,1.6,0.2c0.5,0.2,1,0.4,1.5,0.8c0.4,0.4,0.8,0.9,1.1,1.6s0.4,1.5,0.4,2.6c0,1.1-0.1,2-0.4,2.7
			c-0.3,0.7-0.6,1.2-1.1,1.6c-0.4,0.4-0.9,0.7-1.5,0.8c-0.5,0.1-1.1,0.2-1.6,0.2c-0.5,0-1-0.1-1.6-0.2s-1-0.4-1.5-0.8
			c-0.4-0.4-0.8-0.9-1.1-1.6C324.8,85.2,324.7,84.3,324.7,83.3z M327.2,83.3c0,0.4,0,0.9,0.1,1.3c0.1,0.4,0.2,0.8,0.3,1.1
			s0.4,0.6,0.6,0.8c0.3,0.2,0.6,0.3,1,0.3c0.4,0,0.7-0.1,1-0.3c0.3-0.2,0.5-0.5,0.6-0.8s0.2-0.7,0.3-1.1c0.1-0.4,0.1-0.9,0.1-1.3
			c0-0.4,0-0.9-0.1-1.3c-0.1-0.4-0.2-0.8-0.3-1.1c-0.1-0.3-0.3-0.6-0.6-0.8c-0.3-0.2-0.6-0.3-1-0.3c-0.4,0-0.7,0.1-1,0.3
			c-0.3,0.2-0.5,0.5-0.6,0.8c-0.2,0.3-0.3,0.7-0.3,1.1C327.2,82.4,327.2,82.8,327.2,83.3z"/>
		<path class="st0" d="M336.3,79.9h-1.7v-1.8h1.7V76c0-0.4,0-0.7,0.1-1.1c0.1-0.3,0.3-0.6,0.5-0.9s0.5-0.5,0.9-0.6s0.9-0.2,1.4-0.2
			c0.3,0,0.7,0,1,0.1c0.3,0.1,0.6,0.1,0.8,0.2l-0.1,1.8c-0.1,0-0.3-0.1-0.5-0.1c-0.2,0-0.3,0-0.5,0c-0.4,0-0.6,0.1-0.9,0.3
			c-0.2,0.2-0.3,0.5-0.3,0.9v1.8h1.9v1.8h-1.9v8.5h-2.5V79.9z"/>
		<path class="st0" d="M347.4,74.5h2.6v14h-2.6V74.5z"/>
		<path class="st0" d="M352.4,79.8c0-0.3,0-0.6,0-0.9c0-0.3,0-0.6-0.1-0.8h2.3c0,0.3,0,0.5,0,0.8c0,0.3,0,0.5,0,0.8h0
			c0.1-0.2,0.2-0.3,0.3-0.5c0.1-0.2,0.3-0.4,0.5-0.6c0.2-0.2,0.5-0.3,0.8-0.4c0.3-0.1,0.7-0.2,1.1-0.2c0.6,0,1.1,0.1,1.5,0.3
			c0.4,0.2,0.7,0.5,0.9,0.8c0.2,0.4,0.4,0.8,0.5,1.2c0.1,0.5,0.1,0.9,0.1,1.5v6.6h-2.5v-6.2c0-0.8-0.1-1.4-0.3-1.7s-0.6-0.5-1.1-0.5
			c-0.3,0-0.6,0.1-0.8,0.2c-0.2,0.1-0.4,0.3-0.5,0.5c-0.1,0.2-0.2,0.5-0.3,0.8c-0.1,0.3-0.1,0.6-0.1,0.9v6h-2.5V79.8z"/>
		<path class="st0" d="M363.7,79.9H362v-1.8h1.7V76c0-0.4,0-0.7,0.1-1.1c0.1-0.3,0.3-0.6,0.5-0.9s0.5-0.5,0.9-0.6s0.9-0.2,1.4-0.2
			c0.3,0,0.7,0,1,0.1c0.3,0.1,0.6,0.1,0.8,0.2l-0.1,1.8c-0.1,0-0.3-0.1-0.5-0.1c-0.2,0-0.3,0-0.5,0c-0.4,0-0.6,0.1-0.9,0.3
			c-0.2,0.2-0.3,0.5-0.3,0.9v1.8h1.9v1.8h-1.9v8.5h-2.5V79.9z"/>
		<path class="st0" d="M369.1,83.3c0-1.1,0.1-1.9,0.4-2.6s0.6-1.2,1.1-1.6c0.4-0.4,0.9-0.7,1.5-0.8c0.5-0.2,1.1-0.2,1.6-0.2
			c0.5,0,1,0.1,1.6,0.2c0.5,0.2,1,0.4,1.5,0.8c0.4,0.4,0.8,0.9,1.1,1.6c0.3,0.7,0.4,1.5,0.4,2.6c0,1.1-0.1,2-0.4,2.7
			c-0.3,0.7-0.6,1.2-1.1,1.6c-0.4,0.4-0.9,0.7-1.5,0.8s-1.1,0.2-1.6,0.2c-0.5,0-1-0.1-1.6-0.2s-1-0.4-1.5-0.8
			c-0.4-0.4-0.8-0.9-1.1-1.6C369.3,85.2,369.1,84.3,369.1,83.3z M371.7,83.3c0,0.4,0,0.9,0.1,1.3c0.1,0.4,0.2,0.8,0.3,1.1
			s0.4,0.6,0.6,0.8c0.3,0.2,0.6,0.3,1,0.3c0.4,0,0.7-0.1,1-0.3c0.3-0.2,0.5-0.5,0.6-0.8s0.2-0.7,0.3-1.1c0.1-0.4,0.1-0.9,0.1-1.3
			c0-0.4,0-0.9-0.1-1.3c-0.1-0.4-0.2-0.8-0.3-1.1c-0.1-0.3-0.3-0.6-0.6-0.8c-0.3-0.2-0.6-0.3-1-0.3c-0.4,0-0.7,0.1-1,0.3
			c-0.3,0.2-0.5,0.5-0.6,0.8c-0.2,0.3-0.3,0.7-0.3,1.1C371.7,82.4,371.7,82.8,371.7,83.3z"/>
		<path class="st0" d="M379.9,79.8c0-0.3,0-0.6,0-0.9c0-0.3,0-0.6-0.1-0.8h2.2c0,0.3,0,0.6,0,0.9c0,0.3,0,0.6,0,0.9h0
			c0.1-0.2,0.2-0.4,0.3-0.7c0.1-0.2,0.3-0.5,0.5-0.7c0.2-0.2,0.5-0.4,0.8-0.5c0.3-0.1,0.6-0.2,1-0.2c0.1,0,0.2,0,0.2,0
			c0.1,0,0.1,0,0.2,0v2.3c-0.2-0.1-0.5-0.1-0.7-0.1c-0.3,0-0.5,0-0.8,0.1c-0.3,0.1-0.5,0.2-0.7,0.4c-0.2,0.2-0.4,0.5-0.5,0.8
			c-0.1,0.3-0.2,0.7-0.2,1.2v5.6h-2.5V79.8z"/>
		<path class="st0" d="M386.9,79.8c0-0.4,0-0.7,0-1c0-0.3,0-0.5-0.1-0.7h2.5c0,0.3,0,0.5,0,0.8c0,0.3,0,0.5,0,0.8h0
			c0.1-0.2,0.2-0.4,0.4-0.6c0.2-0.2,0.3-0.4,0.5-0.6c0.2-0.2,0.5-0.3,0.7-0.4c0.3-0.1,0.6-0.2,1-0.2c0.4,0,0.8,0.1,1.1,0.2
			c0.3,0.1,0.5,0.3,0.7,0.4c0.2,0.2,0.4,0.3,0.5,0.5c0.1,0.2,0.2,0.4,0.3,0.5c0.1-0.2,0.3-0.4,0.4-0.5s0.3-0.4,0.6-0.5
			c0.2-0.2,0.5-0.3,0.8-0.4c0.3-0.1,0.6-0.2,1-0.2c0.6,0,1,0.1,1.4,0.3s0.7,0.5,0.9,0.8c0.2,0.4,0.4,0.8,0.5,1.3
			c0.1,0.5,0.2,1.1,0.2,1.7v6.4h-2.5v-6.5c0-0.6-0.1-1.1-0.3-1.4s-0.5-0.5-1-0.5c-0.3,0-0.5,0.1-0.7,0.2c-0.2,0.1-0.4,0.3-0.5,0.5
			c-0.1,0.2-0.2,0.4-0.3,0.7s-0.1,0.5-0.1,0.8v6.2h-2.5v-6.5c0-0.6-0.1-1.1-0.3-1.4c-0.2-0.3-0.5-0.5-1-0.5c-0.3,0-0.5,0.1-0.7,0.2
			c-0.2,0.1-0.4,0.3-0.5,0.5c-0.1,0.2-0.2,0.4-0.3,0.7c-0.1,0.3-0.1,0.5-0.1,0.8v6.2h-2.5V79.8z"/>
		<path class="st0" d="M403,78.7c0.3-0.2,0.8-0.3,1.3-0.5c0.5-0.2,1.2-0.3,2-0.3c0.8,0,1.5,0.1,2,0.3c0.5,0.2,0.9,0.5,1.2,0.8
			c0.3,0.4,0.5,0.8,0.6,1.3c0.1,0.5,0.2,1.1,0.2,1.7v4.5c0,0.4,0,0.7,0,1s0.1,0.6,0.1,0.8h-2.2c-0.1-0.2-0.1-0.4-0.1-0.7
			c0-0.2,0-0.5,0-0.7h0c-0.3,0.4-0.7,0.8-1.1,1.1c-0.4,0.3-1,0.5-1.8,0.5c-0.4,0-0.8-0.1-1.2-0.2c-0.4-0.1-0.7-0.3-1-0.6
			c-0.3-0.3-0.5-0.6-0.7-1c-0.2-0.4-0.3-0.8-0.3-1.3c0-0.7,0.1-1.3,0.4-1.7c0.3-0.5,0.6-0.8,1.1-1.1c0.5-0.3,1-0.4,1.7-0.5
			c0.7-0.1,1.4-0.2,2.2-0.2h0.5v-0.4c0-0.3,0-0.5-0.1-0.7c-0.1-0.2-0.2-0.5-0.3-0.6c-0.2-0.2-0.4-0.3-0.6-0.4
			c-0.2-0.1-0.5-0.2-0.9-0.2c-0.3,0-0.6,0-0.9,0.1c-0.3,0.1-0.6,0.2-0.8,0.2c-0.2,0.1-0.5,0.2-0.7,0.3c-0.2,0.1-0.4,0.2-0.5,0.3
			L403,78.7z M407.9,83.4h-0.2c-1.1,0-1.9,0.1-2.5,0.4c-0.6,0.3-0.9,0.8-0.9,1.5c0,0.5,0.1,0.8,0.4,1.1c0.3,0.3,0.7,0.4,1.2,0.4
			c0.7,0,1.3-0.3,1.6-0.8c0.3-0.5,0.5-1.2,0.5-2.2V83.4z"/>
		<path class="st0" d="M413.2,76l2.5-0.8v2.9h2.1v1.8h-2.1v5.3c0,0.6,0.1,0.9,0.3,1.1s0.5,0.3,0.8,0.3c0.2,0,0.4,0,0.6-0.1
			s0.3-0.1,0.4-0.2v1.8c-0.2,0.1-0.4,0.2-0.7,0.2s-0.6,0.1-1,0.1c-0.9,0-1.6-0.2-2.1-0.7c-0.5-0.5-0.8-1.2-0.8-2.3v-5.6h-1.6v-1.8
			h1.6V76z"/>
		<path class="st0" d="M419.6,73.7h2.6v2.4h-2.6V73.7z M419.7,78.1h2.5v10.3h-2.5V78.1z"/>
		<path class="st0" d="M424,83.3c0-1.1,0.1-1.9,0.4-2.6s0.6-1.2,1.1-1.6c0.4-0.4,0.9-0.7,1.5-0.8c0.5-0.2,1.1-0.2,1.6-0.2
			c0.5,0,1,0.1,1.6,0.2c0.5,0.2,1,0.4,1.5,0.8c0.4,0.4,0.8,0.9,1.1,1.6c0.3,0.7,0.4,1.5,0.4,2.6c0,1.1-0.1,2-0.4,2.7
			c-0.3,0.7-0.6,1.2-1.1,1.6c-0.4,0.4-0.9,0.7-1.5,0.8s-1.1,0.2-1.6,0.2c-0.5,0-1-0.1-1.6-0.2s-1-0.4-1.5-0.8
			c-0.4-0.4-0.8-0.9-1.1-1.6C424.1,85.2,424,84.3,424,83.3z M426.5,83.3c0,0.4,0,0.9,0.1,1.3c0.1,0.4,0.2,0.8,0.3,1.1
			s0.4,0.6,0.6,0.8c0.3,0.2,0.6,0.3,1,0.3c0.4,0,0.7-0.1,1-0.3c0.3-0.2,0.5-0.5,0.6-0.8s0.2-0.7,0.3-1.1c0.1-0.4,0.1-0.9,0.1-1.3
			c0-0.4,0-0.9-0.1-1.3c-0.1-0.4-0.2-0.8-0.3-1.1c-0.1-0.3-0.3-0.6-0.6-0.8c-0.3-0.2-0.6-0.3-1-0.3c-0.4,0-0.7,0.1-1,0.3
			c-0.3,0.2-0.5,0.5-0.6,0.8c-0.2,0.3-0.3,0.7-0.3,1.1C426.6,82.4,426.5,82.8,426.5,83.3z"/>
		<path class="st0" d="M434.8,79.8c0-0.3,0-0.6,0-0.9c0-0.3,0-0.6-0.1-0.8h2.3c0,0.3,0,0.5,0,0.8c0,0.3,0,0.5,0,0.8h0
			c0.1-0.2,0.2-0.3,0.3-0.5c0.1-0.2,0.3-0.4,0.5-0.6c0.2-0.2,0.5-0.3,0.8-0.4c0.3-0.1,0.7-0.2,1.1-0.2c0.6,0,1.1,0.1,1.5,0.3
			c0.4,0.2,0.7,0.5,0.9,0.8c0.2,0.4,0.4,0.8,0.5,1.2c0.1,0.5,0.1,0.9,0.1,1.5v6.6h-2.5v-6.2c0-0.8-0.1-1.4-0.3-1.7s-0.6-0.5-1.1-0.5
			c-0.3,0-0.6,0.1-0.8,0.2c-0.2,0.1-0.4,0.3-0.5,0.5c-0.1,0.2-0.2,0.5-0.3,0.8c-0.1,0.3-0.1,0.6-0.1,0.9v6h-2.5V79.8z"/>
		<path class="st0" d="M451.8,76.5h-3.1v-2h8.8v2h-3.1v11.9h-2.6V76.5z"/>
		<path class="st0" d="M465.1,87.9c-0.3,0.1-0.7,0.2-1.2,0.4c-0.5,0.2-1.2,0.2-1.9,0.2c-0.8,0-1.5-0.1-2.1-0.4
			c-0.6-0.3-1.1-0.7-1.5-1.1c-0.4-0.5-0.7-1-0.9-1.6s-0.3-1.3-0.3-2c0-0.8,0.1-1.5,0.3-2.1c0.2-0.7,0.5-1.2,0.8-1.7
			c0.4-0.5,0.8-0.9,1.3-1.2c0.5-0.3,1.1-0.4,1.8-0.4c0.6,0,1.1,0.1,1.6,0.3s0.9,0.5,1.3,0.9s0.7,1,0.9,1.7c0.2,0.7,0.3,1.6,0.3,2.6
			v0.5h-6c0,0.9,0.2,1.6,0.6,2.1c0.4,0.5,1.1,0.8,2,0.8c0.8,0,1.3-0.1,1.8-0.3c0.4-0.2,0.7-0.4,0.9-0.5L465.1,87.9z M463.3,82.4
			c0-1.8-0.6-2.7-1.7-2.7c-0.3,0-0.6,0.1-0.8,0.2s-0.4,0.4-0.6,0.6c-0.2,0.3-0.3,0.5-0.3,0.9c-0.1,0.3-0.1,0.7-0.1,1H463.3z"/>
		<path class="st0" d="M474.5,88.2c-0.3,0.1-0.6,0.2-1.1,0.3s-0.9,0.1-1.4,0.1c-0.9,0-1.6-0.1-2.2-0.4c-0.6-0.3-1.1-0.7-1.5-1.1
			c-0.4-0.5-0.7-1-0.9-1.7c-0.2-0.6-0.3-1.3-0.3-2.1s0.1-1.4,0.3-2.1s0.5-1.2,0.9-1.7c0.4-0.5,0.9-0.9,1.5-1.1
			c0.6-0.3,1.4-0.4,2.2-0.4c0.4,0,0.8,0,1.2,0.1c0.4,0.1,0.7,0.2,1,0.3l-0.1,2c-0.2-0.1-0.5-0.2-0.8-0.3c-0.3-0.1-0.6-0.2-1-0.2
			c-0.9,0-1.6,0.3-2.1,0.9s-0.6,1.5-0.6,2.6c0,0.5,0.1,0.9,0.2,1.3c0.1,0.4,0.3,0.8,0.5,1.1s0.5,0.5,0.9,0.7s0.8,0.3,1.2,0.3
			c0.3,0,0.6-0.1,1-0.2c0.3-0.1,0.6-0.2,0.8-0.3L474.5,88.2z"/>
		<path class="st0" d="M476.9,73.4h2.5v6h0.1c0.1-0.2,0.2-0.3,0.4-0.5c0.1-0.2,0.3-0.3,0.5-0.5c0.2-0.1,0.4-0.3,0.7-0.4
			c0.3-0.1,0.6-0.1,1-0.1c0.6,0,1.1,0.1,1.5,0.3c0.4,0.2,0.7,0.5,0.9,0.8c0.2,0.4,0.4,0.8,0.5,1.2c0.1,0.5,0.1,0.9,0.1,1.5v6.6h-2.5
			v-6.2c0-0.8-0.1-1.4-0.3-1.7s-0.6-0.5-1.1-0.5c-0.3,0-0.6,0.1-0.8,0.2c-0.2,0.1-0.4,0.3-0.5,0.5c-0.1,0.2-0.2,0.5-0.3,0.8
			c-0.1,0.3-0.1,0.6-0.1,0.9v6h-2.5V73.4z"/>
		<path class="st0" d="M487.4,79.8c0-0.3,0-0.6,0-0.9c0-0.3,0-0.6-0.1-0.8h2.3c0,0.3,0,0.5,0,0.8c0,0.3,0,0.5,0,0.8h0
			c0.1-0.2,0.2-0.3,0.3-0.5c0.1-0.2,0.3-0.4,0.5-0.6c0.2-0.2,0.5-0.3,0.8-0.4c0.3-0.1,0.7-0.2,1.1-0.2c0.6,0,1.1,0.1,1.5,0.3
			c0.4,0.2,0.7,0.5,0.9,0.8c0.2,0.4,0.4,0.8,0.5,1.2c0.1,0.5,0.1,0.9,0.1,1.5v6.6H493v-6.2c0-0.8-0.1-1.4-0.3-1.7s-0.6-0.5-1.1-0.5
			c-0.3,0-0.6,0.1-0.8,0.2c-0.2,0.1-0.4,0.3-0.5,0.5c-0.1,0.2-0.2,0.5-0.3,0.8c-0.1,0.3-0.1,0.6-0.1,0.9v6h-2.5V79.8z"/>
		<path class="st0" d="M497.3,83.3c0-1.1,0.1-1.9,0.4-2.6s0.6-1.2,1.1-1.6c0.4-0.4,0.9-0.7,1.5-0.8c0.5-0.2,1.1-0.2,1.6-0.2
			c0.5,0,1,0.1,1.6,0.2c0.5,0.2,1,0.4,1.5,0.8c0.4,0.4,0.8,0.9,1.1,1.6c0.3,0.7,0.4,1.5,0.4,2.6c0,1.1-0.1,2-0.4,2.7
			c-0.3,0.7-0.6,1.2-1.1,1.6c-0.4,0.4-0.9,0.7-1.5,0.8s-1.1,0.2-1.6,0.2c-0.5,0-1-0.1-1.6-0.2s-1-0.4-1.5-0.8
			c-0.4-0.4-0.8-0.9-1.1-1.6C497.4,85.2,497.3,84.3,497.3,83.3z M499.9,83.3c0,0.4,0,0.9,0.1,1.3c0.1,0.4,0.2,0.8,0.3,1.1
			s0.4,0.6,0.6,0.8c0.3,0.2,0.6,0.3,1,0.3c0.4,0,0.7-0.1,1-0.3c0.3-0.2,0.5-0.5,0.6-0.8s0.2-0.7,0.3-1.1c0.1-0.4,0.1-0.9,0.1-1.3
			c0-0.4,0-0.9-0.1-1.3c-0.1-0.4-0.2-0.8-0.3-1.1c-0.1-0.3-0.3-0.6-0.6-0.8c-0.3-0.2-0.6-0.3-1-0.3c-0.4,0-0.7,0.1-1,0.3
			c-0.3,0.2-0.5,0.5-0.6,0.8c-0.2,0.3-0.3,0.7-0.3,1.1C499.9,82.4,499.9,82.8,499.9,83.3z"/>
		<path class="st0" d="M508.4,73.4h2.5v15h-2.5V73.4z"/>
		<path class="st0" d="M512.7,83.3c0-1.1,0.1-1.9,0.4-2.6s0.6-1.2,1.1-1.6c0.4-0.4,0.9-0.7,1.5-0.8c0.5-0.2,1.1-0.2,1.6-0.2
			c0.5,0,1,0.1,1.6,0.2c0.5,0.2,1,0.4,1.5,0.8c0.4,0.4,0.8,0.9,1.1,1.6c0.3,0.7,0.4,1.5,0.4,2.6c0,1.1-0.1,2-0.4,2.7
			c-0.3,0.7-0.6,1.2-1.1,1.6c-0.4,0.4-0.9,0.7-1.5,0.8s-1.1,0.2-1.6,0.2c-0.5,0-1-0.1-1.6-0.2s-1-0.4-1.5-0.8
			c-0.4-0.4-0.8-0.9-1.1-1.6C512.9,85.2,512.7,84.3,512.7,83.3z M515.3,83.3c0,0.4,0,0.9,0.1,1.3c0.1,0.4,0.2,0.8,0.3,1.1
			s0.4,0.6,0.6,0.8c0.3,0.2,0.6,0.3,1,0.3c0.4,0,0.7-0.1,1-0.3c0.3-0.2,0.5-0.5,0.6-0.8s0.2-0.7,0.3-1.1c0.1-0.4,0.1-0.9,0.1-1.3
			c0-0.4,0-0.9-0.1-1.3c-0.1-0.4-0.2-0.8-0.3-1.1c-0.1-0.3-0.3-0.6-0.6-0.8c-0.3-0.2-0.6-0.3-1-0.3c-0.4,0-0.7,0.1-1,0.3
			c-0.3,0.2-0.5,0.5-0.6,0.8c-0.2,0.3-0.3,0.7-0.3,1.1C515.3,82.4,515.3,82.8,515.3,83.3z"/>
		<path class="st0" d="M524,90c0.3,0.2,0.7,0.3,1.2,0.6s1.1,0.3,1.8,0.3c0.6,0,1.1-0.1,1.4-0.3c0.4-0.2,0.6-0.4,0.8-0.7
			c0.2-0.3,0.3-0.6,0.4-1c0.1-0.4,0.1-0.8,0.1-1.2v-1h0c-0.1,0.2-0.2,0.4-0.4,0.6c-0.1,0.2-0.3,0.4-0.5,0.6s-0.5,0.3-0.8,0.4
			c-0.3,0.1-0.7,0.2-1,0.2c-0.4,0-0.8-0.1-1.2-0.2c-0.4-0.1-0.8-0.4-1.2-0.8c-0.4-0.4-0.7-0.9-0.9-1.6s-0.4-1.5-0.4-2.6
			c0-0.7,0.1-1.4,0.2-2c0.1-0.6,0.3-1.2,0.7-1.7c0.3-0.5,0.7-0.9,1.1-1.2s1-0.4,1.7-0.4c0.4,0,0.7,0,1,0.1s0.5,0.2,0.7,0.4
			c0.2,0.2,0.4,0.3,0.6,0.6s0.3,0.4,0.4,0.7h0.1c0-0.3,0-0.5,0-0.8c0-0.3,0-0.5,0.1-0.8h2.2c0,0.3,0,0.5-0.1,0.8c0,0.3,0,0.5,0,0.8
			v7.6c0,0.8-0.1,1.5-0.2,2.2c-0.1,0.7-0.4,1.3-0.8,1.8c-0.4,0.5-0.8,0.9-1.5,1.1s-1.4,0.4-2.3,0.4c-0.8,0-1.5-0.1-2.2-0.2
			c-0.6-0.2-1.1-0.3-1.4-0.4L524,90z M526,83.2c0,0.6,0,1.1,0.1,1.6c0.1,0.4,0.2,0.8,0.4,1.1s0.3,0.5,0.5,0.6s0.4,0.2,0.6,0.2
			c0.8,0,1.3-0.3,1.7-0.9c0.3-0.6,0.5-1.4,0.5-2.6c0-1.1-0.2-1.9-0.5-2.5c-0.4-0.6-0.9-0.8-1.5-0.8c-0.7,0-1.1,0.3-1.4,0.9
			S526,82.1,526,83.2z"/>
		<path class="st0" d="M538.4,85.9L538.4,85.9l2-7.8h2.4l-3.2,10.4l-0.6,1.9c-0.1,0.4-0.2,0.7-0.4,1c-0.2,0.3-0.4,0.6-0.6,0.8
			s-0.5,0.4-0.8,0.5c-0.3,0.1-0.7,0.2-1.1,0.2c-0.3,0-0.6,0-0.9-0.1s-0.5-0.1-0.7-0.2l0.1-1.9c0.1,0.1,0.3,0.1,0.4,0.1
			c0.1,0,0.3,0.1,0.5,0.1c0.4,0,0.7-0.1,0.8-0.3s0.4-0.6,0.5-1.2l0.2-0.9l-3.4-10.4h2.6L538.4,85.9z"/>
		<path class="st0" d="M291.4,79.9h-1.7v-1.8h1.7V76c0-0.4,0-0.7,0.1-1.1c0.1-0.3,0.3-0.6,0.5-0.9s0.5-0.5,0.9-0.6
			c0.4-0.2,0.8-0.2,1.4-0.2c0.3,0,0.7,0,1,0.1c0.3,0.1,0.6,0.1,0.8,0.2l-0.1,1.8c-0.1,0-0.3-0.1-0.5-0.1c-0.2,0-0.3,0-0.5,0
			c-0.4,0-0.6,0.1-0.9,0.3c-0.2,0.2-0.3,0.5-0.3,0.9v1.8h1.9v1.8h-1.9v8.5h-2.5V79.9z"/>
		<path class="st0" d="M297.9,73.7h2.6v2.4h-2.6V73.7z M297.9,78.1h2.5v10.3h-2.5V78.1z"/>
	</g>
</g>
<g id="Layer_2">
</g>
</svg>
