<?xml version="1.0" encoding="utf-8"?>
<!-- Generator: Adobe Illustrator 24.0.3, SVG Export Plug-In . SVG Version: 6.00 Build 0)  -->
<!DOCTYPE svg PUBLIC "-//W3C//DTD SVG 1.1//EN" "http://www.w3.org/Graphics/SVG/1.1/DTD/svg11.dtd" [
	<!ENTITY ns_extend "http://ns.adobe.com/Extensibility/1.0/">
	<!ENTITY ns_ai "http://ns.adobe.com/AdobeIllustrator/10.0/">
	<!ENTITY ns_graphs "http://ns.adobe.com/Graphs/1.0/">
	<!ENTITY ns_vars "http://ns.adobe.com/Variables/1.0/">
	<!ENTITY ns_imrep "http://ns.adobe.com/ImageReplacement/1.0/">
	<!ENTITY ns_sfw "http://ns.adobe.com/SaveForWeb/1.0/">
	<!ENTITY ns_custom "http://ns.adobe.com/GenericCustomNamespace/1.0/">
	<!ENTITY ns_adobe_xpath "http://ns.adobe.com/XPath/1.0/">
]>
<svg version="1.1" id="Layer_1" xmlns:x="&ns_extend;" xmlns:i="&ns_ai;" xmlns:graph="&ns_graphs;"
	 xmlns="http://www.w3.org/2000/svg" xmlns:xlink="http://www.w3.org/1999/xlink" x="0px" y="0px" viewBox="0 0 213 213"
	 style="enable-background:new 0 0 213 213;" xml:space="preserve">
<style type="text/css">
	.st0{display:none;}
	.st1{opacity:0.7;fill:#FFFFFF;enable-background:new    ;}
	.st2{opacity:0.8;fill:#FFFFFF;enable-background:new    ;}
	.st3{fill:none;}
	.st4{opacity:0.2;fill:#FFFFFF;enable-background:new    ;}
	.st5{opacity:0.6;fill:#FFFFFF;enable-background:new    ;}
	.st6{opacity:0.3;fill:#FFFFFF;enable-background:new    ;}
	.st7{opacity:0.4;fill:#FFFFFF;enable-background:new    ;}
	.st8{opacity:0.5;fill:#FFFFFF;enable-background:new    ;}
	.st9{opacity:0.5;fill:url(#path190_1_);enable-background:new    ;}
	.st10{fill:#FFFFFF;}
	.st11{opacity:0.7;fill:#F5F8FF;enable-background:new    ;}
	.st12{fill:url(#path228_1_);}
	.st13{fill:url(#path252_1_);}
</style>
<metadata>
	<sfw  xmlns="&ns_sfw;">
		<slices></slices>
		<sliceSourceBounds  bottomLeftOrigin="true" height="144" width="144" x="34.5" y="34.5"></sliceSourceBounds>
	</sfw>
</metadata>
<g id="Layer_1_1_" class="st0">
</g>
<g id="svg153">
	<path id="path159" class="st1" d="M55.3,64.2c0,3,5.6,5.4,12.4,5.4s12.4-2.4,12.4-5.4c0-3-5.6-5.4-12.4-5.4S55.3,61.2,55.3,64.2z"
		/>
	<path id="path166" class="st2" d="M56.9,63.3c0,0.9,3.7,3.5,10.9,3.5c7.1,0,10.9-2.6,10.9-3.5c0-0.9-3.7-3.5-10.9-3.5
		C60.6,59.8,56.9,62.4,56.9,63.3z"/>
	<g id="sfondo">
		<path id="path155" class="st3" d="M178.5,178.5h-144v-144h144V178.5z"/>
	</g>
	<path id="path167" class="st4" d="M48.8,70.5c-3.7,0-6.8,3-6.8,6.8v75.8c0,3.7,3,6.8,6.8,6.8h119.8c3.7,0,6.8-3,6.8-6.8V77.3
		c0-3.7-3-6.8-6.8-6.8H48.8L48.8,70.5z"/>
	<path id="path168" class="st3" d="M43.7,63c-4.3,0-7.9,3.5-7.9,7.9v75.8c0,4.3,3.5,7.9,7.9,7.9h119.8c4.3,0,7.9-3.5,7.9-7.9V70.9
		c0-4.3-3.5-7.9-7.9-7.9H43.7z"/>
	<path id="path169" class="st3" d="M43.7,64.1c-3.7,0-6.8,3-6.8,6.8v75.8c0,3.7,3,6.8,6.8,6.8h119.8c3.7,0,6.8-3,6.8-6.8V70.9
		c0-3.7-3-6.8-6.8-6.8H43.7z"/>
	<path id="path176" class="st5" d="M168.6,146.7c0,2.8-2.3,5.1-5.1,5.1H43.7c-2.8,0-5.1-2.3-5.1-5.1V70.9c0-2.8,2.3-5.1,5.1-5.1
		h119.8c2.8,0,5.1,2.3,5.1,5.1V146.7z"/>
	<path id="path177" class="st6" d="M163.5,65.8h-1.7c2.8,0,5.1,2.3,5.1,5.1v75.8c0,2.8-2.3,5.1-5.1,5.1h1.7c2.8,0,5.1-2.3,5.1-5.1
		V70.9C168.6,68.1,166.3,65.8,163.5,65.8L163.5,65.8z"/>
	<path id="path178" class="st7" d="M40.3,146.7V70.9c0-2.8,2.3-5.1,5.1-5.1h-1.7c-2.8,0-5.1,2.3-5.1,5.1v75.8c0,2.8,2.3,5.1,5.1,5.1
		h1.7C42.6,151.8,40.3,149.5,40.3,146.7L40.3,146.7z"/>
	<path id="path179" class="st8" d="M163.5,65.8H43.7c-2.8,0-5.1,2.3-5.1,5.1v3c0-2.7,2.3-4.9,5.1-4.9h119.8c2.8,0,5.1,2.2,5.1,4.9
		v-3C168.6,68.1,166.3,65.8,163.5,65.8L163.5,65.8z"/>
	<path id="path180" class="st3" d="M78.5,110.8c0,22.5,18.2,40.7,40.7,40.7s40.7-18.2,40.7-40.7s-18.2-40.7-40.7-40.7
		C96.7,70.1,78.5,88.3,78.5,110.8L78.5,110.8z"/>
	
		<linearGradient id="path190_1_" gradientUnits="userSpaceOnUse" x1="2658.9333" y1="4953.6006" x2="3084.0603" y2="4953.6006" gradientTransform="matrix(0.1875 0 0 0.1875 -419.25 -818.0001)">
		<stop  offset="5.600000e-03" style="stop-color:#FFFFFF;stop-opacity:0.8"/>
		<stop  offset="0.5" style="stop-color:#F7F5FF"/>
		<stop  offset="1" style="stop-color:#FFFFFF"/>
	</linearGradient>
	<path id="path190" class="st9" d="M79.3,110.8c0,22,17.9,39.9,39.9,39.9s39.9-17.9,39.9-39.9s-17.9-39.9-39.9-39.9
		C97.2,70.9,79.3,88.8,79.3,110.8L79.3,110.8z"/>
	<path id="path191" class="st7" d="M97.9,110.8c0,11.7,9.5,21.3,21.3,21.3s21.3-9.5,21.3-21.3c0-11.7-9.5-21.3-21.3-21.3
		S97.9,99.1,97.9,110.8L97.9,110.8z"/>
	<path id="path201" class="st10" d="M101,111.1c0-10.2,8.3-18.4,18.4-18.4s18.4,8.2,18.4,18.3v-0.1c0-10.3-8.4-18.7-18.7-18.7
		s-18.7,8.4-18.7,18.7s8.4,18.7,18.7,18.7h0.1C109.2,129.4,101,121.2,101,111.1L101,111.1z"/>
	<path id="path202" class="st3" d="M103,110.8c0,8.9,7.3,16.2,16.2,16.2s16.2-7.3,16.2-16.2s-7.3-16.2-16.2-16.2
		S103,101.9,103,110.8L103,110.8z"/>
	<path id="path212" class="st11" d="M103.8,110.8c0,8.5,6.9,15.3,15.3,15.3c8.5,0,15.3-6.9,15.3-15.3s-6.9-15.3-15.3-15.3
		S103.8,102.3,103.8,110.8L103.8,110.8z"/>
	<path id="path213" class="st10" d="M109.8,110.8c0,5.2,4.2,9.4,9.4,9.4c5.2,0,9.4-4.2,9.4-9.4c0-5.2-4.2-9.4-9.4-9.4
		S109.8,105.6,109.8,110.8L109.8,110.8z"/>
	<path id="path214" class="st10" d="M109.8,110.8c0,5.2,4.2,9.4,9.4,9.4c5.2,0,9.4-4.2,9.4-9.4c0-5.2-4.2-9.4-9.4-9.4
		S109.8,105.6,109.8,110.8L109.8,110.8z"/>
	<path id="path215" class="st5" d="M119.2,70.9c-0.1,0-0.2,0-0.3,0c21.5,0.2,39,18,39,39.8c0,21.9-17.5,39.7-39,39.8
		c0.1,0,0.2,0,0.3,0c22,0,39.9-17.9,39.9-39.9C159,88.8,141.2,70.9,119.2,70.9L119.2,70.9z"/>
	<path id="path216" class="st2" d="M80.2,110.8c0-21.9,17.6-39.7,39.2-39.9c-0.1,0-0.1,0-0.2,0c-22,0-39.9,17.9-39.9,39.9
		s17.9,39.9,39.9,39.9c0.1,0,0.1,0,0.2,0C97.8,150.5,80.2,132.7,80.2,110.8L80.2,110.8z"/>
	<path id="path219" class="st3" d="M135.7,78.1c0,0.9,0.8,1.7,1.7,1.7h21.5c0.9,0,1.7-0.8,1.7-1.7v-6.6c0-0.9-0.8-1.7-1.7-1.7h-21.5
		c-0.9,0-1.7,0.8-1.7,1.7V78.1z"/>
	<path id="path220" class="st2" d="M137.4,70.7c-0.5,0-0.8,0.4-0.8,0.8v6.6c0,0.5,0.4,0.8,0.8,0.8h21.5c0.5,0,0.8-0.4,0.8-0.8v-6.6
		c0-0.5-0.4-0.8-0.8-0.8H137.4L137.4,70.7z"/>
	<path id="path221" class="st10" d="M137.4,71.5v6.6h21.5v-6.6H137.4L137.4,71.5z"/>
	
		<linearGradient id="path228_1_" gradientUnits="userSpaceOnUse" x1="3026.1333" y1="4741.2891" x2="3026.1333" y2="4765.3398" gradientTransform="matrix(0.1875 0 0 0.1875 -419.25 -818.0001)">
		<stop  offset="0" style="stop-color:#FFFFFF"/>
		<stop  offset="1" style="stop-color:#D2DDFF;stop-opacity:0.176"/>
	</linearGradient>
	<path id="path228" class="st12" d="M137.4,70.7c0,0,0,4,0,5.8c7.4-1.3,14.1-4.2,21.5-4.1v-1.7C158.9,70.7,137.4,70.7,137.4,70.7
		L137.4,70.7z"/>
	<path id="path229" class="st7" d="M94,76.1c0,3.9,3.2,7.1,7.1,7.1s7.1-3.2,7.1-7.1S105,69,101.1,69S94,72.2,94,76.1L94,76.1z"/>
	<path id="path230" class="st8" d="M115.7,72c-1.8,1-3.1,2.9-3.1,5.1c0,3.2,2.6,5.8,5.8,5.8c3.2,0,5.8-2.6,5.8-5.8
		c0-2.3-1.4-4.3-3.3-5.2c-0.6,0-1.1,0-1.7,0C118,71.8,116.9,71.9,115.7,72L115.7,72z"/>
	<path id="path231" class="st5" d="M113.2,76.9c0,2.7,2.2,4.9,4.9,4.9c2.7,0,4.9-2.2,4.9-4.9c0-2.7-2.2-4.9-4.9-4.9
		C115.4,72,113.2,74.2,113.2,76.9L113.2,76.9z"/>
	<path id="path238" class="st2" d="M96.6,76.1c0,2.5,2.1,4.6,4.6,4.6s4.6-2.1,4.6-4.6s-2.1-4.6-4.6-4.6
		C98.6,71.5,96.6,73.6,96.6,76.1L96.6,76.1z"/>
	<path id="path245" class="st10" d="M101.2,71.6c-1.5,0-2.8,0.8-3.4,1.9c0.2,1.5,1.6,2.7,3.4,2.7s3.2-1.2,3.4-2.6
		C104,72.3,102.7,71.6,101.2,71.6L101.2,71.6z"/>
	
		<linearGradient id="path252_1_" gradientUnits="userSpaceOnUse" x1="2865.6001" y1="4746.4941" x2="2865.6001" y2="4771.8589" gradientTransform="matrix(0.1875 0 0 0.1875 -419.25 -818.0001)">
		<stop  offset="0" style="stop-color:#FFFFFF;stop-opacity:0"/>
		<stop  offset="1" style="stop-color:#FFFFFF"/>
	</linearGradient>
	<path id="path252" class="st13" d="M114.9,75.7c0.6,1.1,1.7,1.9,3.1,1.9s2.6-0.9,3.2-2.1c-0.5-1.2-1.7-2-3.1-2
		C116.6,73.6,115.4,74.5,114.9,75.7L114.9,75.7z"/>
</g>
</svg>
