<?xml version="1.0" encoding="utf-8"?>
<!-- Generator: Adobe Illustrator 24.0.1, SVG Export Plug-In . SVG Version: 6.00 Build 0)  -->
<svg version="1.1" id="Layer_1" xmlns="http://www.w3.org/2000/svg" xmlns:xlink="http://www.w3.org/1999/xlink" x="0px" y="0px"
	 viewBox="0 0 110 92" style="enable-background:new 0 0 110 92;" xml:space="preserve">
<style type="text/css">
	.st0{fill:none;stroke:#FFFFFF;stroke-miterlimit:10;}
	.st1{fill:#FFFFFF;}
</style>
<circle class="st0" cx="50" cy="45" r="40.1"/>
<g>
	<circle class="st1" cx="47.7" cy="12.6" r="0.5"/>
	<circle class="st1" cx="52.3" cy="13.2" r="0.5"/>
	<circle class="st1" cx="58.4" cy="21.3" r="0.5"/>
	<circle class="st1" cx="25.1" cy="63.3" r="0.5"/>
	<circle class="st1" cx="26.3" cy="66.9" r="0.4"/>
	<circle class="st1" cx="20.7" cy="63.9" r="0.3"/>
	<circle class="st1" cx="39" cy="70.9" r="0.3"/>
	<circle class="st1" cx="67.7" cy="65" r="0.3"/>
	<circle class="st1" cx="76.1" cy="55.9" r="0.3"/>
	<circle class="st1" cx="35.2" cy="24" r="0.3"/>
	<circle class="st1" cx="44.3" cy="17.2" r="0.3"/>
	<circle class="st1" cx="43.4" cy="16.6" r="0.3"/>
	<circle class="st1" cx="42.5" cy="15.9" r="0.3"/>
	<circle class="st1" cx="36.6" cy="25.7" r="0.3"/>
	<circle class="st1" cx="50.1" cy="8.2" r="0.3"/>
	<circle class="st1" cx="52.4" cy="17.9" r="0.3"/>
	<circle class="st1" cx="48.8" cy="16" r="0.3"/>
	<circle class="st1" cx="42.8" cy="18.6" r="0.3"/>
	<circle class="st1" cx="69.3" cy="73.9" r="0.3"/>
	<circle class="st1" cx="24.5" cy="65.6" r="0.3"/>
	<circle class="st1" cx="48" cy="70" r="0.3"/>
	<circle class="st1" cx="31.5" cy="65.3" r="0.3"/>
	<circle class="st1" cx="34.4" cy="70.1" r="0.3"/>
	<circle class="st1" cx="55.9" cy="67.1" r="0.3"/>
	<circle class="st1" cx="67.8" cy="60.4" r="0.3"/>
	<circle class="st1" cx="76.7" cy="64.5" r="0.3"/>
	<circle class="st1" cx="79.8" cy="66.5" r="0.3"/>
	<circle class="st1" cx="80.3" cy="61.1" r="0.3"/>
	<circle class="st1" cx="35.7" cy="53.6" r="0.3"/>
	<circle class="st1" cx="35.8" cy="61.3" r="0.5"/>
	<circle class="st1" cx="38.5" cy="67" r="0.4"/>
	<circle class="st1" cx="70.8" cy="61.1" r="0.4"/>
	<circle class="st1" cx="82.5" cy="60.4" r="0.4"/>
	<circle class="st1" cx="76.7" cy="58" r="0.4"/>
	<circle class="st1" cx="70.8" cy="58.2" r="0.4"/>
	<path class="st1" d="M58.7,12.3l1.1-0.1l-1.1-0.1c0-0.2-0.2-0.4-0.4-0.4l-0.1-1.1l-0.1,1.1c-0.2,0-0.4,0.2-0.4,0.4l-1.1,0.1
		l1.2,0.1c0,0.2,0.2,0.3,0.4,0.4l0.1,1.1l0.1-1.1C58.5,12.7,58.7,12.5,58.7,12.3z"/>
	<path class="st1" d="M39.8,24.7l1.1-0.1l-1.1-0.1c0-0.2-0.2-0.4-0.4-0.4L39.3,23l-0.1,1.1c-0.2,0-0.4,0.2-0.4,0.4l-1.1,0.1l1.2,0.1
		c0,0.2,0.2,0.3,0.4,0.4l0.1,1.1l0.1-1.1C39.6,25.1,39.8,25,39.8,24.7z"/>
	<path class="st1" d="M81.7,57.7l1.1-0.1l-1.1-0.1c0-0.2-0.2-0.4-0.4-0.4L81.1,56l-0.1,1.1c-0.2,0-0.4,0.2-0.4,0.4l-1.1,0.1l1.2,0.1
		c0,0.2,0.2,0.3,0.4,0.4l0.1,1.1l0.1-1.1C81.5,58,81.6,57.9,81.7,57.7z"/>
	<path class="st1" d="M36,74.9l1.1-0.1L36,74.7c0-0.2-0.2-0.4-0.4-0.4l-0.1-1.1l-0.1,1.1c-0.2,0-0.4,0.2-0.4,0.4l-1.1,0.1l1.2,0.1
		c0,0.2,0.2,0.3,0.4,0.4l0.1,1.1l0.1-1.1C35.8,75.3,36,75.1,36,74.9z"/>
	<path class="st1" d="M78.1,66.5l1.1-0.1l-1.1-0.1c0-0.2-0.2-0.4-0.4-0.4l-0.1-1.1l-0.1,1.1c-0.2,0-0.4,0.2-0.4,0.4L76,66.5l1.2,0.1
		c0,0.2,0.2,0.3,0.4,0.4l0.1,1.1l0.1-1.1C77.9,66.9,78.1,66.7,78.1,66.5z"/>
	<path class="st1" d="M59.6,35.4c-4.7,1.8-9.2,3.4-13.1,4.6c-7.8,2.4-29.2,9.1-42.1,17.4l1.1,0.4c7.9-4.4,13-5.8,17.9-7.4
		c5.3-1.7,22.6-5.7,30.4-7.9c2.6-0.7,5.7-1.7,9-2.9c-0.8-1.1-1.6-2.1-2.4-3.2C60.1,36.1,59.9,35.7,59.6,35.4z M65.3,43.2
		c-1.1,0.8-2.1,1.4-2.7,1.8C58.7,47.2,40,60,35.7,62.9S19.6,77,16.1,80.3L16,81.6c11.2-10.1,14.7-12.6,19.2-16
		c5.5-4.2,16.9-12,20.8-14.5c3.7-2.4,7.1-4.6,10.1-6.6c0-0.1-0.1-0.2-0.1-0.2C65.7,44,65.5,43.6,65.3,43.2z M82.8,24.7
		c-5.5,3.2-14.1,7.1-22.4,10.4c0.2,0.2,0.4,0.5,0.6,0.7c0.9,1.2,1.8,2.4,2.6,3.5c6.6-2.4,13.8-5.7,19.5-9.6
		c-2.7,2.6-11.7,9.3-17.2,13.1c0.3,0.5,0.6,0.9,0.8,1.4c8.3-5.6,13.9-9.7,17.2-12.4c4.5-3.8,14.8-12.2,18.7-23.6
		C95.7,16.9,87.6,21.9,82.8,24.7z"/>
	<path class="st1" d="M44.9,54.9c-0.9-1.1-2.1-2.6-3-3.8c-1.2-1.5-2.4-3.1-3.4-4.7c-0.3,0.1-0.7,0.2-1,0.3c1.3,2,2.7,3.9,4.2,5.8
		c1.1,1.4,2.1,2.5,2.6,3.2c0.1,0.1,0.3,0.5,0.6,0.9c0.3-0.2,0.7-0.4,1-0.7C45.5,55.7,45.2,55.3,44.9,54.9z M51.3,60.8
		c-0.7-0.7-2.5-1.8-4.3-3.6c-0.4,0.3-0.8,0.6-1.2,0.8c1.2,1.7,2.8,3.7,4.1,4.3C51.8,63.3,52.3,61.7,51.3,60.8z M61,35.8
		C50.5,22.6,37.7,15.4,32.1,19.7c-4.3,3.4-2.5,13.4,3.4,23.8c0.3-0.1,0.6-0.2,0.9-0.3c-6-10.2-7.6-19.7-3.6-22.9
		c5.1-4,17.4,3.2,27.6,16.1c2.1,2.7,4,5.3,5.5,7.9c6,10,7.9,18.9,3.7,22.6c-1.3,1.1-5.2,1.6-10.2-0.7c-0.1,0.1,0,0.3,0.1,0.4
		c4.4,1.8,8.6,2.4,10.7,0.8C75.4,63.3,71.5,49,61,35.8z"/>
	<path class="st1" d="M16,37.4h6.7l5.6,9.6c0,0,0-6.9,0-7.5c0-0.8-1.1-1.9-1.4-2.1c0.5,0,4.4,0,4.6,0c-0.3,0.1-1.2,1.2-1.2,2.1
		c0,0.5,0,10.5,0,11c0,0.7,1,1.6,1.4,2h-6.5l-5.7-9.6c0,0,0,7.2,0,7.6c0,0.8,0.7,1.5,1.5,2.1h-4.9c0.7-0.3,1.4-1.2,1.4-2
		s0-10.4,0-10.8C17.6,38.7,16.7,38,16,37.4z"/>
	<path class="st1" d="M77.4,52.4h8.9c-0.5-0.1-1.1-0.7-1.3-1.5c-0.3-0.8-5-13.6-5-13.6h-3.4c-1,0.7-2,1.4-3.1,2.2c0,0,0,0.1,0,0.1
		c-0.1,0.9-2.8,10.5-3,11c-0.2,0.7-1.4,1.4-1.8,1.8h4.8c-0.5-0.5-0.9-1.1-0.8-1.7c0.1-0.6,0.4-1.8,0.4-1.8h5
		c0.2,0.6,0.4,1.1,0.5,1.7C78.6,51.3,78,51.9,77.4,52.4z M73.5,47.1l1.7-5.5l2.2,5.5H73.5z M72.8,37.9c0.2-0.2,0.5-0.4,0.7-0.5h-1.3
		C72.3,37.5,72.5,37.7,72.8,37.9z"/>
	<path class="st1" d="M38.6,50.8c0.1-0.6,0.4-1.8,0.4-1.8h5c0.2,0.6,0.4,1.1,0.5,1.7c0.1,0.6-0.5,1.3-1.1,1.8h7.9
		c0.2-0.1,0.3-0.2,0.5-0.3c-0.3-0.3-0.6-0.7-0.8-1.2c-0.3-0.8-5-13.6-5-13.6H38c0.4,0.3,1.5,1.3,1.3,2.3c-0.1,0.9-2.8,10.5-3,11
		c-0.2,0.7-1.4,1.4-1.8,1.8h4.8C38.9,51.9,38.5,51.4,38.6,50.8z M41,41.6l2.2,5.5h-3.9L41,41.6z"/>
	<path class="st1" d="M65.7,44.8c-1.5,1-3,2-4.6,3.1c0.7,0.4,1.3,0.8,1.4,1.4c0.1,1.1-2.1,1.6-4,1.4c-0.4,0-0.8-0.1-1.1-0.3
		c-0.4,0.3-0.8,0.5-1.2,0.8c-0.4,0.3-0.9,0.6-1.5,1v1.6c0.4-0.8,1.2-1.5,1.9-1.5c0.3,0,1.3,0.9,5.4,0.7c2-0.1,5.8-2.2,5.7-4.7
		C67.5,46.8,66.7,45.7,65.7,44.8z M54.5,48.6v1.6c0.4-0.2,0.7-0.5,1.1-0.7C55,49.1,54.6,48.7,54.5,48.6z M64.4,43.9
		c-0.4-0.2-0.8-0.4-1.1-0.6c-1.9-0.9-3.9-1.1-4.3-2.3c-0.3-0.9,0.5-1.7,2.6-1.6c2,0,3.9,1.2,4.4,1.7v-3.9c-0.2,0.2-0.8,0.9-1.4,0.8
		c-1.2-0.2-3.1-0.6-5.4-0.5c-2.6,0-4.8,2-4.9,4.5c-0.1,3.5,2.7,4.5,4.3,5c0.2,0.1,0.4,0.1,0.6,0.2c1.5-1,2.7-1.8,3.4-2.2
		C63,44.7,63.6,44.3,64.4,43.9z"/>
</g>
</svg>
